<svg xmlns="http://www.w3.org/2000/svg" viewBox="0 0 1920 1080"><g fill="#093ed1" class="color2A94F4 svgShape"><ellipse cx="945.337" cy="1014.722" opacity=".11" rx="430.98" ry="58.672" fill="#093ed1" class="color000 svgShape"/><path d="M1403.853 684.658c5.147 126.421-118.618 411.668-480 394.61-340.512-16.073-677.462-287.127-486.538-714.915C621.815-49.041 953.787-14.712 1070.81 18.027c129.393 36.199 499.042 182.841 287.573 426.905-339.31 391.608 34.976-18.028 45.47 239.726z" opacity=".11" fill="#093ed1" class="color000 svgShape"/></g><path fill="#5582ff" d="m779.876 282.777-75.416-72.52-131.891 137.159 75.409 72.513c29.81-57.462 75.779-105.185 131.898-137.152zM610.543 573.877c0-33.055 4.814-64.981 13.738-95.142H519.674v190.284h104.607c-8.924-30.16-13.738-62.087-13.738-95.142zM945.337 239.083c33.055 0 64.981 4.814 95.142 13.738V148.214H850.195v104.607c30.161-8.924 62.087-13.738 95.142-13.738zM1242.696 419.929l75.409-72.513-131.892-137.159-75.416 72.52c56.12 31.967 102.089 79.69 131.899 137.152zM1266.393 478.735c8.924 30.161 13.738 62.087 13.738 95.142 0 33.055-4.814 64.981-13.738 95.142H1371V478.735h-104.607zM1110.797 864.978l75.416 72.52 131.892-137.159-75.409-72.513c-29.81 57.462-75.779 105.185-131.899 137.152zM647.978 727.825l-75.409 72.513 131.892 137.159 75.416-72.52c-56.12-31.966-102.089-79.689-131.899-137.152zM945.337 908.671c-33.055 0-64.981-4.814-95.142-13.738V999.54h190.284V894.933c-30.161 8.925-62.087 13.738-95.142 13.738z" class="colorFFBE55 svgShape"/><path fill="#5582ff" d="M1308.813 565.476c-4.391-200.711-168.354-362.097-370.118-362.097-42.486 0-83.258 7.249-121.265 20.418-27.636 9.577-53.718 22.419-77.927 37.932-26.101 16.728-50.012 36.572-71.105 59.112-22.95 24.524-42.658 52.119-58.315 82.18-26.604 51.078-41.715 109.098-41.715 170.685 0 11.653.584 23.167 1.634 34.545 14.529 156.989 127.009 285.582 275.784 324.02 29.691 7.671 60.82 11.762 92.909 11.762 204.524 0 370.327-165.801 370.327-370.327 0-2.759-.147-5.484-.209-8.23zM938.695 814.823c-20.948 0-41.27-2.68-60.646-7.701-98.715-25.573-172.732-112.141-179.776-217.065-.364-5.417-.696-10.843-.696-16.351 0-40.997 10.312-79.548 28.365-113.34 11.304-21.155 25.739-40.351 42.564-57.158 11.893-11.879 25.056-22.462 39.191-31.679 17.115-11.161 35.679-20.282 55.462-26.804a240.724 240.724 0 0 1 75.537-12.138c130.404 0 236.561 103.539 240.907 232.888.094 2.738.209 5.471.209 8.23-.001 133.166-107.954 241.118-241.117 241.118z" class="colorFFBE55 svgShape"/><path fill="#b1c5fc" fill-rule="evenodd" d="M759.954 742.641s-12.38 9.242-18.712 13.967a6.443 6.443 0 0 1-7.418.201 11.013 11.013 0 0 1-2.692-15.808l10.991-14.557 17.831 16.197z" clip-rule="evenodd" class="colorFCD2B1 svgShape"/><path fill="#093ed1" fill-rule="evenodd" d="M978.183 663.715c9.23 6.79 25.786 13.812 31.808 21.524 38.675 49.534-2.148 87.588-57.851 49.547-89.527-61.144-79.938-84.001-192.968 15.549l-25.607-20.045c83.013-137.975 115.301-161.698 244.618-66.575z" clip-rule="evenodd" class="color0E538C svgShape"/><path fill="#b1c5fc" fill-rule="evenodd" d="m873.357 896.504-7.315 27.093a6.258 6.258 0 0 1-6.837 4.577 7.765 7.765 0 0 1-6.716-8.684l4.038-31.56 16.83 8.574z" clip-rule="evenodd" class="colorFCD2B1 svgShape"/><path fill="#0b2670" fill-rule="evenodd" d="M872.275 920.877c-.044-1.276-24.879-3.441-25.17-2.463-.083.123-.123.261-.165.401-3.984 13.408-17.038 22.007-30.931 20.368a6.382 6.382 0 0 0-2.387.168c-8.592 2.295-13.366 7.169-14.232 14.691 24.263 3.201 48.909 2.617 73.966-2.055l-1.081-31.11zM746.475 757.206c.591-1.133-19.942-15.27-20.677-14.562a1.34 1.34 0 0 0-.341.266c-10.081 9.698-25.678 10.735-36.954 2.456a6.447 6.447 0 0 0-2.159-1.033c-8.606-2.243-15.163-.359-19.628 5.756 19.525 14.757 41.249 26.409 65.349 34.709l14.41-27.592z" clip-rule="evenodd" class="color0B4870 svgShape"/><path fill="#0b2670" d="M708.2 763.836s.096.038 0 0z" class="color0B4870 svgShape"/><path fill="#093ed1" fill-rule="evenodd" d="M1012.161 715.52c11.451.45 29.098-3.012 38.408 0 59.791 19.347 39.538 91.393-27.915 91.103-108.413-.465-109.708-17.385-145.564 96.432l-26.273-2.503c-8.575-160.794.934-191.335 161.344-185.032z" clip-rule="evenodd" class="color0E538C svgShape"/><path fill="#b1c5fc" fill-rule="evenodd" d="M1027.863 655.72s16.805 11.393 24.344 3.308c7.538-8.085 2.312 16.604 2.312 16.604l-8.571 9.025-15.519-14.874-15.709-16.754 13.143 2.691zM1115.089 578.357c-10.911-12.275-30.551-33.825-30.551-33.825s-33.853 10.919-30.019 32.055c3.832 21.138 6.055 38.365 6.055 38.365l43.425-11.942s22.002-12.378 11.09-24.653z" clip-rule="evenodd" class="colorFCD2B1 svgShape"/><path fill="#0b2670" fill-rule="evenodd" d="M1054.424 576.587s11.336 110.209-29.284 118.71l-2.487 20.223s37.44-9.831 45.626-26.52c8.187-16.689 18.103-100.345 18.103-100.345-15.218 1.149-26.281-2.409-31.958-12.068z" clip-rule="evenodd" class="color0B4870 svgShape"/><path fill="#cad8ff" fill-rule="evenodd" d="M1013.944 484.362c-14.885 10.769-20.549 30.083-16.229 49.057.77 3.377 4.283 19.394 8.548 25.551 21.536 31.087 57.623 22.939 71.164 13.144 20.883-15.107 23.615-47.034 6.096-71.249-17.518-24.216-48.696-31.61-69.579-16.503z" clip-rule="evenodd" class="colorFFE3CA svgShape"/><path fill="#0b2670" fill-rule="evenodd" d="M967.807 512.081c1.842 38.753 61.387.926 63.538-7.905-.32 12.322 5.634 21.89 17.303 28.949 0 0-2.54 12.448 8.461 18.09 10.999 5.641 28.558 18.257 37.955 7.522 6.418-7.333 8.015-23.068 9.426-36.164 6.085-56.475-42.037-49.373-52.516-54.239.001 0-87.339-23.002-84.167 43.747z" clip-rule="evenodd" class="color0B4870 svgShape"/><path fill="#cad8ff" fill-rule="evenodd" d="M1047.332 535.217c0-6.984 5.661-12.644 12.645-12.644 6.982 0 12.645 5.66 12.645 12.644v1.225c0 7.658-6.208 13.865-13.865 13.865h-11.425v-15.09z" clip-rule="evenodd" class="colorFFE3CA svgShape"/><path fill="#001142" d="M982.183 499.237z" class="color421A00 svgShape"/><path fill="#001960" d="M993.693 530.229s.001-.097 0 0zM1093.204 483.982c-.056-.262 0 0 0 0z" class="color602600 svgShape"/><path fill="#d3d3d3" d="m940.414 600.613 96.351 76.873 2.93-3.709-94.99-75.019c-1.628-.554-3.315.619-4.291 1.855z" class="colorD3D3D3 svgShape"/><path fill="#f7f7f7" fill-rule="evenodd" d="m943.014 600.613 95.216 75.019-15.549 39.407-95.215-75.02z" clip-rule="evenodd" class="colorF7F7F7 svgShape"/><path fill="#d3d3d3" d="M1020.452 714.66c-.805 3.846.427 5.006 4.496 2.425l16.235-41.452c-.713-2.194-2.432-2.481-5.156-.86l-15.575 39.887z" class="colorD3D3D3 svgShape"/><path fill="#d3d3d3" d="M924.792 639.146c-.473 1.442-.344 1.753.717 2.721l95.182 76.236 2.954-3.69-93.815-75.14 13.844-38.66h-3.261l-15.621 38.533z" class="colorD3D3D3 svgShape"/><path fill="#0b2670" fill-rule="evenodd" d="M1032.446 711.366c17.712 7.027 27.041 44.346 31.464 86.871 168.144-46.84 112.163-185.472 42.998-229.015-2.928 14.087-12.77 17.297-29.127 19.433-.468 46.055-3.209 72.218-45.335 122.711z" clip-rule="evenodd" class="color0B4870 svgShape"/><path fill="#b1c5fc" fill-rule="evenodd" d="M1046.645 717.488a125.91 125.91 0 0 0-13.131-4.547 12.944 12.944 0 0 1-8.498-7.107c-3.185-6.971-8.376-12.975-15.695-17.96a10.534 10.534 0 0 1-3.319-3.634c-1.262-2.257-2.994-5.391-2.994-5.391-1.264-2.251-2.928-3.237-4.669-3.216a3.946 3.946 0 0 0-3.251 6.222c2.232 3.393 5.981 8.715 8.446 12.211a.949.949 0 0 1-1.092 1.44c-1.391-.513-2.885-.565-4.441-.244a9.457 9.457 0 0 1-8.175-2.258c-3.038-2.713-6.56-5.282-10.641-7.701-2.911-1.727-5.606 1.71-5.42 5.34l22.343 16.988c17.83 1.958 31.747 11.553 44.889 22.658-.002 0 17.039-8.154 5.648-12.801z" clip-rule="evenodd" class="colorFCD2B1 svgShape"/><path fill="#b1c5fc" fill-rule="evenodd" d="M1084.906 717.086c-14.175 4.452-30.815 2.993-37.86.639-4.751-1.588-12.279 8.554-7.032 11.602 11.595 6.735 34.13 17.722 53.38 23.481 3.398-12.14-3.39-25.468-8.488-35.722z" clip-rule="evenodd" class="colorFCD2B1 svgShape"/><path fill="#093ed1" fill-rule="evenodd" d="M1091.868 752.339c37.012 10.737 110.234-12.688 62.716-135.693-2.38-6.159-19.021-25.331-41.181-17.391-8.789 3.148-27.618 17.521-15.647 43.116 26.237 56.099 3.697 69.581-17.042 76.095 9.184 9.997 14.544 21.747 11.154 33.873z" clip-rule="evenodd" class="color0E538C svgShape"/><path fill="#b1c5fc" d="M1006.609 645.397c-2.531.033-5.308.625-6.036 2.94-.818 2.599 1.762 5.378 4.708 4.841 6-1.022 12.056 2.884 17.77 6.811 0 0 5.001 1.481 5.891-2.271.814-3.437-4.081-5.931-8.278-8.178-4.37-2.339-9.078-4.209-14.055-4.143z" class="colorFCD2B1 svgShape"/></svg>