<svg xmlns="http://www.w3.org/2000/svg" enable-background="new 0 0 1364 960" viewBox="0 0 1364 960"><path fill="#cfe1ff" d="M1174.167 551.464c.812-2.522 4.062-3.576 6.571-2.744 2.51.832 4.336 3.021 5.689 5.303 2.19 3.691 3.395 7.515 4.478 11.566.649-3.927 1.441-7.829 2.352-11.693.603-2.555 1.263-5.1 1.977-7.63-5.659-1.865-10.742-5.454-14.378-10.177-1.378-1.79-2.601-4.071-1.903-6.219.815-2.51 4.065-3.564 6.573-2.741 2.507.824 4.329 2.999 5.678 5.267 2.266 3.808 3.471 7.761 4.581 11.961 2.29-7.772 5.129-15.386 8.608-22.697-5.19-2.746-9.553-7.041-12.352-12.203-1.077-1.986-1.923-4.432-.893-6.442 1.203-2.349 4.579-2.874 6.924-1.663 2.345 1.21 3.799 3.647 4.772 6.1 1.576 3.975 2.156 7.927 2.581 12.084 3.788-7.649 8.417-15.235 14.77-20.973.132-.12.27-.233.403-.352-4.821-3.464-8.584-8.388-10.641-13.959-.782-2.119-1.27-4.661.036-6.504 1.526-2.153 4.943-2.191 7.091-.658 2.148 1.533 3.239 4.152 3.851 6.719 1.079 4.523.997 8.851.78 13.427 7.519-6.428 16.255-11.498 23.541-18.174-4.94-3.472-8.8-8.467-10.891-14.134-.782-2.119-1.271-4.661.036-6.504 1.526-2.153 4.943-2.191 7.09-.658 2.148 1.533 3.239 4.152 3.851 6.719 1.109 4.645.991 9.083.762 13.797 1.791-1.701 3.486-3.508 5.039-5.472 3.145-3.977 5.408-8.589 6.87-13.489-5.829-2.048-10.998-5.941-14.558-10.991-1.301-1.846-2.428-4.177-1.64-6.294.92-2.473 4.212-3.39 6.682-2.462 2.47.928 4.199 3.178 5.452 5.5 2.298 4.259 3.325 8.638 4.33 13.322 2.193-7.955 2.305-16.599.631-24.487-5.023-2.489-9.337-6.404-12.27-11.183-1.182-1.925-2.157-4.323-1.237-6.385 1.076-2.41 4.419-3.115 6.825-2.032 2.406 1.084 3.989 3.439 5.091 5.836 1.759 3.825 2.552 7.678 3.193 11.736.098.117.176.262.219.444 1.575 6.682 1.765 13.659.769 20.443-.22 1.496-.495 2.991-.826 4.476 3.109-4.48 7.451-8.104 12.434-10.323 2.063-.919 4.568-1.572 6.492-.389 2.248 1.382 2.51 4.789 1.12 7.032-1.389 2.244-3.931 3.504-6.453 4.283-4.703 1.453-9.272 1.593-14.156 1.67-.832 3.082-1.949 6.083-3.478 8.881-2.314 4.237-5.346 7.852-8.759 11.112 4.916-2.733 10.609-4.064 16.228-3.755 2.256.124 4.782.686 5.955 2.617 1.369 2.256.047 5.406-2.213 6.768-2.26 1.362-5.097 1.323-7.696.866-4.98-.877-9.203-2.923-13.718-5.153-5.784 5.214-12.483 9.561-18.62 14.22-1.931 1.467-3.807 2.976-5.592 4.58 5.182-3.234 11.366-4.841 17.467-4.513 2.256.121 4.783.68 5.958 2.609 1.372 2.254.054 5.406-2.204 6.771-2.258 1.365-5.095 1.33-7.695.876-5.095-.89-9.399-3.005-14.033-5.287-1.884 1.73-3.655 3.577-5.261 5.613-2.936 3.726-5.445 7.78-7.686 11.956-.596 1.11-1.171 2.232-1.732 3.362 4.398-3.367 9.74-5.499 15.254-6.051 2.248-.225 4.831-.059 6.286 1.668 1.701 2.018.879 5.335-1.144 7.029-2.023 1.694-4.833 2.092-7.471 2.04-4.875-.096-9.222-1.374-13.833-2.817-3.397 7.143-6.127 14.62-8.351 22.21 3.587-4.534 8.502-8.011 13.984-9.848 2.142-.718 4.698-1.129 6.5.233 2.105 1.591 2.04 5.007.443 7.107-1.597 2.101-4.248 3.112-6.832 3.647-4.904 1.014-9.542.688-14.505.289-.287 1.008-.568 2.019-.838 3.03-1.48 5.552-2.715 11.192-3.632 16.882 3.56-4.362 8.364-7.706 13.705-9.496 2.142-.718 4.697-1.128 6.5.233 2.105 1.591 2.04 5.007.443 7.108-1.597 2.101-4.248 3.112-6.833 3.646-4.77.986-9.286.706-14.096.322-.968 6.499-1.512 13.057-1.517 19.618-.001 1.367-2.121 1.271-2.12-.093.005-6.626.569-13.248 1.551-19.809-5.683-1.88-10.792-5.502-14.447-10.267C1174.699 555.918 1173.472 553.623 1174.167 551.464zM553.821 570.573c-1.207-2.358.347-5.401 2.711-6.585 2.363-1.185 5.202-.926 7.773-.268 4.157 1.065 7.713 2.919 11.342 5.02-2.315-3.237-4.512-6.558-6.598-9.937-1.379-2.234-2.71-4.501-3.992-6.796-5.322 2.679-11.455 3.73-17.365 2.958-2.24-.293-4.717-1.043-5.741-3.056-1.196-2.352.358-5.395 2.714-6.583 2.356-1.189 5.182-.937 7.74-.286 4.294 1.094 7.94 3.039 11.693 5.228-3.871-7.118-7.242-14.512-9.947-22.143-5.612 1.724-11.734 1.768-17.363.092-2.165-.644-4.492-1.777-5.184-3.928-.808-2.512 1.21-5.27 3.724-6.069 2.515-.8 5.265-.104 7.687.945 3.924 1.699 7.127 4.086 10.364 6.727-2.724-8.089-4.809-16.728-4.368-25.277.009-.178.026-.356.037-.533-5.859.955-12.001.13-17.393-2.359-2.051-.947-4.192-2.401-4.57-4.627-.441-2.602 1.95-5.043 4.553-5.476 2.603-.433 5.225.649 7.473 2.033 3.96 2.438 6.959 5.559 10.04 8.95.778-9.861 3.378-19.621 3.816-29.494-5.949 1.034-12.21.226-17.694-2.306-2.051-.946-4.193-2.4-4.57-4.628-.441-2.602 1.95-5.043 4.553-5.476 2.603-.433 5.226.649 7.473 2.033 4.066 2.503 7.12 5.727 10.288 9.225.066-2.469-.012-4.945-.301-7.433-.585-5.037-2.242-9.9-4.67-14.399-5.572 2.67-11.98 3.567-18.068 2.509-2.225-.387-4.669-1.24-5.608-3.295-1.096-2.4.585-5.375 2.989-6.463 2.404-1.089 5.217-.718 7.744.04 4.636 1.39 8.456 3.763 12.477 6.367-4.069-7.179-10.098-13.375-16.856-17.774-5.313 1.788-11.132 2.066-16.584.757-2.197-.528-4.581-1.534-5.387-3.645-.942-2.466.926-5.327 3.394-6.26 2.468-.933 5.252-.385 7.726.533 3.947 1.464 7.232 3.63 10.552 6.048.152.013.31.061.469.16 5.836 3.615 10.901 8.418 14.989 13.922.902 1.214 1.763 2.466 2.578 3.751-.965-5.367-.453-10.999 1.504-16.091.81-2.109 2.122-4.34 4.319-4.863 2.568-.611 5.16 1.615 5.762 4.185.602 2.569-.306 5.257-1.54 7.59-2.301 4.351-5.436 7.679-8.837 11.184 1.589 2.768 2.919 5.682 3.814 8.741 1.356 4.633 1.765 9.333 1.654 14.052 1.547-5.408 4.636-10.372 8.83-14.124 1.684-1.506 3.868-2.894 6.062-2.356 2.563.629 3.853 3.792 3.216 6.353-.637 2.561-2.672 4.537-4.834 6.05-4.144 2.898-8.578 4.434-13.348 6.046-.409 7.777-2.077 15.586-3.128 23.219-.33 2.402-.591 4.796-.721 7.192 1.381-5.95 4.622-11.457 9.17-15.536 1.682-1.508 3.865-2.899 6.059-2.364 2.564.625 3.858 3.787 3.225 6.349-.633 2.562-2.666 4.541-4.826 6.057-4.234 2.97-8.774 4.515-13.666 6.175-.111 2.555-.059 5.114.244 7.689.555 4.711 1.644 9.353 3.009 13.891.363 1.207.749 2.407 1.15 3.602.733-5.49 3.007-10.774 6.518-15.06 1.431-1.747 3.377-3.455 5.627-3.261 2.629.226 4.392 3.154 4.157 5.782-.235 2.628-1.941 4.895-3.845 6.723-3.517 3.377-7.496 5.544-11.779 7.781 2.643 7.455 5.994 14.675 9.784 21.617-.666-5.742.356-11.676 2.937-16.85 1.008-2.021 2.527-4.118 4.764-4.428 2.614-.362 4.982 2.101 5.335 4.716.354 2.615-.807 5.203-2.258 7.408-2.754 4.183-6.266 7.229-10.06 10.454.51.916 1.025 1.83 1.548 2.736 2.876 4.975 5.987 9.838 9.358 14.512-.563-5.603.473-11.363 2.988-16.403 1.008-2.021 2.527-4.118 4.764-4.428 2.614-.362 4.982 2.102 5.336 4.717.354 2.615-.807 5.203-2.259 7.408-2.678 4.068-6.072 7.061-9.747 10.188 3.907 5.282 8.156 10.308 12.788 14.954.965.968-.603 2.398-1.566 1.432-4.678-4.692-8.959-9.777-12.899-15.113-5.35 2.686-11.524 3.733-17.478 2.943C557.345 573.349 554.855 572.591 553.821 570.573zM408.246 349.055c.081-2.588-1.639-5.03-3.936-6.218-2.297-1.187-5.059-1.241-7.561-.588-2.502.654-4.784 1.964-6.929 3.411-3.549 2.395-6.896 5.327-9.044 8.99-1.468-6.11-2.461-12.336-2.975-18.608-.047-.57-.083-1.141-.122-1.712 4.483-.051 8.966-.101 13.449-.152 2.991-.034 6.067-.084 8.83-1.232 2.763-1.148 5.175-3.672 5.268-6.666.081-2.588-1.639-5.03-3.936-6.217-2.297-1.187-5.059-1.241-7.561-.588-2.502.653-4.784 1.964-6.929 3.411-3.661 2.471-7.109 5.512-9.245 9.339-.357-6.975-.131-13.978.681-20.914 4.54-.225 9.08-.451 13.62-.677 2.987-.149 6.06-.317 8.777-1.571 2.717-1.254 5.03-3.868 5.009-6.863-.019-2.589-1.831-4.963-4.172-6.062-2.341-1.098-5.103-1.046-7.578-.297-2.475.749-4.706 2.146-6.794 3.675-3.343 2.448-6.48 5.389-8.498 8.967.702-5.003 1.703-9.964 3.015-14.845.389-1.445.813-2.879 1.256-4.307 4.661-.386 9.323-.772 13.984-1.158 2.981-.247 6.046-.516 8.721-1.859 2.674-1.342 4.901-4.031 4.781-7.024-.104-2.587-1.993-4.9-4.369-5.921-2.376-1.021-5.135-.878-7.584-.048-2.45.83-4.633 2.299-6.669 3.896-2.91 2.281-5.64 4.952-7.545 8.088 1.674-4.789 3.654-9.469 5.932-14.006 3.817-2.495 7.635-4.99 11.452-7.485 2.505-1.637 5.074-3.335 6.789-5.79 1.715-2.455 2.396-5.88.868-8.454-1.321-2.225-4.082-3.359-6.657-3.124-2.575.235-4.934 1.675-6.695 3.572-1.761 1.897-2.983 4.229-4.016 6.604-1.904 4.375-3.243 9.177-2.702 13.891-.008.014-.018.026-.026.041-2.433 4.825-4.529 9.813-6.283 14.919-.061-3.848-1.205-7.698-2.724-11.268-1.013-2.381-2.216-4.723-3.961-6.632-1.745-1.91-4.092-3.367-6.665-3.62-2.573-.253-5.344.861-6.683 3.076-1.549 2.563-.897 5.993.798 8.46 1.695 2.467 4.249 4.183 6.741 5.838 3.795 2.521 7.589 5.042 11.384 7.563-1.961 6.311-3.407 12.781-4.329 19.328-.947-3.939-3.1-7.589-5.583-10.834-1.572-2.055-3.318-4.023-5.482-5.439-2.164-1.416-4.799-2.244-7.355-1.849-2.556.394-4.964 2.162-5.712 4.641-.866 2.867.616 6.027 2.87 7.995 2.254 1.968 5.154 2.995 7.978 3.98 4.3 1.498 8.599 2.996 12.898 4.493-.024.207-.052.413-.076.62-.753 6.78-.952 13.617-.606 20.425-1.615-4.242-4.769-7.813-8.224-10.805-1.955-1.693-4.063-3.267-6.468-4.214-2.406-.948-5.154-1.224-7.578-.32-2.424.904-4.425 3.123-4.656 5.702-.268 2.983 1.822 5.777 4.427 7.247 2.605 1.47 5.653 1.888 8.618 2.279 4.659.614 9.318 1.228 13.978 1.842.006.095.013.19.02.285l-.106.081c.037 0 .074-.001.111-.001.447 6.618 1.415 13.2 2.91 19.667-2.833-2.933-6.551-5.02-10.353-6.594-2.435-1.008-4.979-1.851-7.61-1.994-2.631-.144-5.379.472-7.433 2.123-2.054 1.651-3.278 4.436-2.673 7.001.699 2.967 3.618 4.995 6.61 5.579 2.992.584 6.075.009 9.069-.565 4.252-.816 8.504-1.631 12.756-2.447.131-.001.263-.003.394-.004 1.835 7.078 4.309 13.982 7.412 20.602.327.699 1.482.321 1.15-.387-3.051-6.509-5.489-13.287-7.31-20.229 4.253-.048 8.505-.096 12.758-.143 2.99-.034 6.067-.084 8.83-1.232C405.741 354.573 408.153 352.049 408.246 349.055zM856.538 411.756c1.415-2.168 1.218-5.149-.126-7.358-1.344-2.209-3.674-3.692-6.151-4.436-2.477-.744-5.108-.812-7.692-.692-4.277.199-8.661.961-12.402 2.971 1.926-5.981 4.317-11.815 7.141-17.438.257-.511.523-1.018.786-1.526 3.855 2.29 7.709 4.579 11.563 6.868 2.572 1.527 5.225 3.086 8.182 3.542 2.957.457 6.33-.443 7.967-2.951 1.415-2.168 1.218-5.149-.126-7.358-1.344-2.209-3.674-3.692-6.151-4.436-2.477-.744-5.107-.813-7.692-.692-4.412.205-8.939 1.008-12.754 3.164 3.324-6.142 7.162-12.005 11.464-17.506 3.994 2.17 7.989 4.339 11.983 6.509 2.629 1.427 5.34 2.882 8.313 3.226 2.973.343 6.308-.685 7.848-3.255 1.331-2.221 1.019-5.191-.408-7.347-1.428-2.156-3.813-3.549-6.317-4.197-2.504-.648-5.135-.616-7.713-.397-4.128.351-8.338 1.23-11.923 3.236 3.203-3.907 6.639-7.623 10.299-11.108 1.084-1.032 2.192-2.035 3.314-3.025 4.182 2.096 8.363 4.192 12.545 6.288 2.674 1.34 5.432 2.705 8.414 2.951 2.982.245 6.282-.892 7.738-3.51 1.257-2.263.848-5.222-.65-7.329-1.497-2.108-3.928-3.421-6.451-3.987-2.524-.566-5.153-.447-7.722-.143-3.672.434-7.393 1.293-10.651 2.981 3.921-3.219 8.048-6.185 12.354-8.874 4.558-.144 9.116-.289 13.675-.433 2.991-.095 6.068-.208 8.81-1.412 2.742-1.204 5.105-3.775 5.14-6.768.03-2.588-1.738-4.992-4.06-6.132-2.321-1.139-5.085-1.137-7.576-.433-2.491.704-4.748 2.06-6.866 3.55-3.902 2.746-7.545 6.15-9.535 10.456-.015.008-.029.012-.043.022-4.588 2.854-8.974 6.023-13.129 9.471 1.95-3.318 2.977-7.201 3.537-11.04.374-2.561.565-5.186.068-7.725-.496-2.539-1.742-5.004-3.808-6.56-2.066-1.555-5.011-2.046-7.308-.85-2.657 1.383-3.885 4.651-3.721 7.64.164 2.988 1.452 5.783 2.719 8.493 1.928 4.128 3.857 8.255 5.786 12.382-4.958 4.369-9.56 9.142-13.754 14.253 1.241-3.857 1.302-8.094.87-12.157-.273-2.573-.74-5.162-1.851-7.497-1.111-2.335-2.931-4.414-5.318-5.406-2.388-.993-5.364-.737-7.293.991-2.231 1.998-2.61 5.468-1.71 8.321.9 2.854 2.842 5.239 4.742 7.55 2.892 3.516 5.784 7.032 8.676 10.549-.128.164-.259.325-.387.49-4.171 5.398-7.898 11.133-11.145 17.127.828-4.463-.007-9.154-1.4-13.506-.789-2.463-1.77-4.904-3.33-6.965-1.561-2.061-3.765-3.727-6.305-4.216-2.54-.489-5.404.365-6.943 2.447-1.781 2.408-1.45 5.881.01 8.492 1.46 2.611 3.845 4.554 6.174 6.43 3.659 2.948 7.318 5.898 10.978 8.846-.044.084-.087.169-.131.254l-.133.014c.032.019.064.038.096.057-3.062 5.884-5.661 12.008-7.749 18.309-.893-3.978-2.982-7.696-5.41-11.018-1.555-2.128-3.289-4.171-5.461-5.663-2.172-1.492-4.839-2.396-7.452-2.055-2.613.341-5.107 2.083-5.926 4.588-.947 2.897.49 6.148 2.741 8.203 2.251 2.056 5.183 3.169 8.038 4.236 4.056 1.516 8.111 3.032 12.167 4.549.113.067.226.134.339.201-2.116 6.999-3.596 14.182-4.391 21.451-.084.768 1.099 1.046 1.184.268.782-7.146 2.226-14.203 4.284-21.079 3.657 2.172 7.313 4.344 10.97 6.516 2.571 1.527 5.225 3.085 8.182 3.542C851.528 415.164 854.901 414.264 856.538 411.756z" class="colorFDCFFF svgShape"/><path fill="#a1c4ff" d="M256.014,404.546c10.516,0.182,28.45-12.778,38.023-8.148c-2.58,12.068-19.238,5.426-28.267,9.343  c-8.052,4.587,14.597,18.808,28.088,16.385c11.095-1.528,12.807-15.766,30.405-30.564c14.862-12.864,20.962-10.855,25.799-20.3  c8.846-17.283-2.64-41.395-5.102-41.081c-0.995,0.127-0.057,4.145-2.53,12.563c0.422,0.958-13.195,32.433-16.904,18.579  c-0.075-15.537,18.976-18.835,15.393-37.962c-2.692-14.34-22.092-22.239-23.098-21.035c8.792,6.455,4.256,34.168-4.279,42.445  c-5.528,4.541-5.843-1.407-4.173-7.67c2.764-21.329,5.7-32.378-5.042-45.991c-13.168-16.686-33.645-6.103-56.928-11.649  c0,0-16.39,24.355-11.96,43.557c4.264,18.48,24.272,11.255,34.192,19.43c4.641,3.119,3.165,10.14-1.309,11.949  c-7.114,4.535-17.595,0.782-25.122-2.008c-12.47-4.628-15.723-9.077-18.069-7.392c-6.358,4.253,5.836,28.566,17.758,29.218  c12.654,6.536,36.539-9.416,47.312,1.828c-4.051,10.536-34.947,11.155-46.436,7.2c-5.809-2.771-8.704-7.126-9.652-6.447  C234.483,383.741,246.58,403.748,256.014,404.546z" class="colorFCA1FF svgShape"/><path fill="#ffffff" d="M278.855,411.837c3.16,0.894,6.506,0.989,9.716,0.315c3.117-0.651,5.961-2.068,8.495-3.972  c2.773-2.093,5.159-4.626,7.603-7.082c2.654-2.655,5.447-5.178,8.397-7.501c1.335-1.046,2.673-2.128,4.117-3.02  c1.202-0.744,2.612-1.342,4.034-0.901c0.016,0.005,0.026-0.006,0.042-0.001c0.157,0.21,0.325,0.409,0.477,0.624  c0.516,0.712,1.017,1.44,1.487,2.189c0.086-0.091,0.179-0.167,0.275-0.248c-0.863-1.345-1.803-2.651-2.815-3.892  c0-0.011,0-0.021-0.006-0.026c-0.279-0.63-0.429-1.331-0.511-2.018c-0.08-0.645-0.132-1.386,0.138-1.994  c0.408-0.905,1.166-1.663,1.862-2.356c0.702-0.688,1.426-1.367,2.159-2.024c5.164-4.632,10.979-8.586,15.534-13.865  c3.741-4.341,6.676-9.637,6.9-15.474c0.01-0.235-0.362-0.23-0.37,0.016c-0.135,3.4-1.22,6.674-2.867,9.641  c-3.224,5.805-8.323,10.153-13.39,14.317c-2.809,2.304-5.646,4.582-8.235,7.136c-0.951,0.941-2.064,2.043-2.145,3.45  c-0.051,0.786,0.056,1.629,0.276,2.417c-2.932-3.414-6.378-6.338-9.792-9.252c-0.155-0.137-0.321-0.274-0.476-0.41c0,0,0,0,0-0.011  c-1.121-3.093-1.198-6.45-0.603-9.669c1.207-6.565,5.159-11.956,9.217-17.075c1.11-1.4,2.231-2.8,3.321-4.22  c1.023-1.329,2.052-2.685,2.883-4.156c1.404-2.505,2.207-5.568,1.085-8.337c-0.089-0.217-0.447-0.118-0.353,0.104  c1.414,3.482-0.282,7.114-2.282,9.98c-3.98,5.691-9.05,10.675-12.066,17.013c-2.315,4.866-3.412,10.691-1.736,15.916  c-3.195-2.738-6.366-5.544-9.033-8.819c-1.455-1.794-2.705-3.718-3.816-5.725c-0.006-0.015-0.001-0.031-0.012-0.052  c-0.016-0.015-0.027-0.036-0.049-0.056c-1.001-1.821-1.895-3.704-2.721-5.614c-1.374-3.18-2.597-6.422-3.935-9.619  c-0.039-3.646,0.849-7.25,1.949-10.702c1.97-6.199,5.074-12.168,5.608-18.74c0.47-5.849-1.667-12.597-7.311-15.272  c-0.217-0.104-0.391,0.22-0.174,0.324c3.14,1.485,5.254,4.42,6.326,7.671c2.072,6.291-0.013,12.869-2.241,18.814  c-2.053,5.47-4.366,11.151-4.515,17.069c-0.174-0.408-0.342-0.821-0.521-1.234c-1.801-4.062-3.991-7.893-6.63-11.466  c-5.408-7.321-12.192-13.465-18.924-19.527c-0.171-0.162-0.425,0.106-0.254,0.268c0.825,0.74,1.65,1.48,2.471,2.225  c6.459,5.865,12.867,11.967,17.796,19.213c-1.945-1.351-4.423-1.805-6.703-2.243c-2.857-0.547-6.155-1.307-7.74-4.017  c-0.121-0.206-0.434-0.014-0.313,0.192c1.481,2.54,4.486,3.491,7.202,4.037c2.827,0.569,6.025,0.951,8.198,3.027  c0.011,0.01,0.021-0.001,0.031,0.009c0,0,0,0,0.006,0.005c2.396,3.69,4.246,7.646,5.911,11.711c1.591,3.895,3.055,7.841,4.9,11.63  c0.177,0.361,0.365,0.721,0.547,1.077c-2.458-2.325-6.036-3.249-9.381-3.292c-3.868-0.049-7.617,1.173-11.263,2.33  c-3.62,1.151-7.251,2.098-11.027,2.511c-7.272,0.788-14.7-0.098-21.577-2.587c-0.222-0.088-0.306,0.28-0.084,0.358  c3.747,1.359,7.659,2.243,11.625,2.639c3.557,0.356,7.151,0.319,10.702-0.115c3.665-0.457,7.181-1.412,10.692-2.523  c3.662-1.162,7.427-2.359,11.317-2.237c3.592,0.114,7.491,1.301,9.733,4.285c1.638,2.932,3.574,5.658,5.879,8.133  c3.172,3.386,6.79,6.311,10.296,9.333c0.3,0.263,0.594,0.522,0.889,0.78c-2.468-0.637-5.114-0.537-7.597,0.002  c-2.669,0.576-5.177,1.732-7.642,2.877c-2.553,1.195-5.112,2.352-7.777,3.278c-5.169,1.8-10.562,2.911-16.016,3.303  c-0.24,0.017-0.23,0.393,0.005,0.371c2.993-0.219,5.975-0.641,8.898-1.281c2.628-0.575,5.22-1.316,7.744-2.222  c2.591-0.934,5.078-2.08,7.569-3.241c2.497-1.156,5.046-2.303,7.764-2.822c2.52-0.483,5.195-0.505,7.657,0.288  c0.01,0,0.01-0.011,0.016-0.006c2.593,2.3,5.074,4.718,7.213,7.433c-1.292-0.246-2.579,0.234-3.695,0.897  c-1.64,0.96-3.141,2.203-4.629,3.378c-2.873,2.285-5.6,4.738-8.192,7.339c-2.496,2.509-4.931,5.116-7.793,7.218  c-2.601,1.911-5.515,3.272-8.691,3.846c-2.979,0.537-6.066,0.393-8.978-0.43C278.713,411.417,278.628,411.775,278.855,411.837z" class="colorFFF svgShape"/><path fill="#a1c4ff" d="M843.485,441.537c-0.092,10.517,13.022,28.339,8.474,37.952c-12.09-2.477-5.59-19.191-9.585-28.186  c-4.656-8.012-18.683,14.758-16.144,28.227c1.623,11.081,15.875,12.671,30.823,30.143c12.99,14.751,11.034,20.869,20.52,25.624  c17.359,8.697,41.371-2.994,41.036-5.454c-0.135-0.993-4.145-0.022-12.584-2.422c-0.954,0.43-32.545-12.917-18.724-16.744  c15.536-0.208,18.997,18.814,38.093,15.068c14.317-2.815,22.049-22.282,20.837-23.277c-6.38,8.847-34.13,4.549-42.48-3.916  c-4.588-5.489,1.357-5.855,7.634-4.239c21.352,2.582,32.426,5.423,45.946-5.435c16.573-13.31,5.815-33.697,11.161-57.026  c0,0-24.495-16.181-43.658-11.586c-18.443,4.422-11.046,24.367-19.136,34.357c-3.079,4.667-10.113,3.252-11.96-1.207  c-4.595-7.075-0.933-17.587,1.792-25.139c4.521-12.509,8.942-15.8,7.237-18.132c-4.307-6.322-28.515,6.08-29.065,18.008  c-6.427,12.71,9.729,36.457-1.422,47.326c-10.571-3.961-11.454-34.85-7.597-46.372c2.721-5.832,7.051-8.765,6.364-9.707  C864.105,419.828,844.202,432.096,843.485,441.537z" class="colorFCA1FF svgShape"/><path fill="#ffffff" d="M836.39,464.439c-0.867,3.167-0.933,6.514-0.232,9.719c0.678,3.111,2.119,5.943,4.045,8.46  c2.117,2.755,4.67,5.119,7.147,7.542c2.677,2.631,5.224,5.402,7.572,8.332c1.057,1.326,2.15,2.655,3.055,4.091  c0.754,1.195,1.365,2.6,0.936,4.026c-0.005,0.016,0.006,0.026,0.001,0.042c-0.208,0.159-0.406,0.328-0.62,0.483  c-0.707,0.522-1.431,1.029-2.177,1.506c0.092,0.085,0.169,0.177,0.25,0.273c1.338-0.874,2.635-1.826,3.868-2.848  c0.011-0.001,0.021-0.001,0.026-0.006c0.627-0.284,1.327-0.44,2.014-0.528c0.645-0.086,1.385-0.144,1.995,0.121  c0.908,0.401,1.673,1.151,2.372,1.842c0.694,0.696,1.379,1.414,2.043,2.142c4.676,5.124,8.68,10.905,13.997,15.415  c4.373,3.704,9.694,6.593,15.533,6.767c0.235,0.007,0.227-0.364-0.019-0.37c-3.401-0.106-6.685-1.163-9.665-2.784  c-5.833-3.174-10.224-8.236-14.431-13.267c-2.328-2.789-4.63-5.607-7.206-8.173c-0.949-0.942-2.06-2.047-3.468-2.116  c-0.786-0.045-1.628,0.07-2.415,0.297c3.389-2.961,6.283-6.432,9.168-9.871c0.135-0.156,0.271-0.323,0.406-0.48c0,0,0,0,0.011,0  c3.084-1.147,6.44-1.253,9.664-0.686c6.575,1.151,12,5.056,17.153,9.071c1.409,1.098,2.819,2.207,4.248,3.284  c1.338,1.012,2.703,2.029,4.18,2.847c2.517,1.382,5.587,2.159,8.346,1.013c0.216-0.091,0.114-0.448-0.107-0.352  c-3.47,1.444-7.116-0.221-9.999-2.197c-5.725-3.931-10.753-8.958-17.115-11.92c-4.886-2.274-10.72-3.32-15.93-1.6  c2.71-3.219,5.489-6.413,8.741-9.108c1.781-1.471,3.695-2.737,5.692-3.865c0.015-0.006,0.031-0.001,0.052-0.012  c0.015-0.016,0.036-0.027,0.056-0.049c1.813-1.017,3.687-1.926,5.59-2.769c3.168-1.401,6.399-2.652,9.585-4.017  c3.646-0.07,7.257,0.786,10.719,1.857c6.215,1.916,12.211,4.97,18.787,5.447c5.853,0.419,12.583-1.775,15.209-7.442  c0.102-0.218-0.223-0.389-0.325-0.171c-1.458,3.152-4.375,5.291-7.617,6.391c-6.273,2.126-12.868,0.097-18.832-2.079  c-5.488-2.006-11.188-4.27-17.107-4.368c0.406-0.177,0.818-0.349,1.23-0.531c4.046-1.835,7.859-4.059,11.409-6.728  c7.275-5.47,13.36-12.307,19.364-19.09c0.161-0.173-0.11-0.424-0.27-0.251c-0.733,0.832-1.466,1.663-2.204,2.49  c-5.81,6.509-11.857,12.969-19.059,17.96c1.335-1.956,1.767-4.439,2.186-6.722c0.523-2.862,1.255-6.165,3.95-7.774  c0.205-0.122,0.01-0.434-0.194-0.311c-2.527,1.503-3.452,4.515-3.975,7.236c-0.545,2.831-0.899,6.033-2.957,8.224  c-0.01,0.011,0.001,0.021-0.009,0.031c0,0,0,0-0.005,0.006c-3.669,2.428-7.609,4.311-11.66,6.011c-3.881,1.625-7.814,3.122-11.587,5  c-0.359,0.18-0.718,0.371-1.072,0.556c2.304-2.478,3.198-6.064,3.212-9.409c0.016-3.868-1.238-7.606-2.426-11.242  c-1.181-3.61-2.16-7.233-2.605-11.005c-0.85-7.265-0.028-14.7,2.402-21.598c0.086-0.223-0.283-0.303-0.358-0.081  c-1.327,3.759-2.177,7.678-2.539,11.648c-0.325,3.56-0.258,7.153,0.206,10.701c0.488,3.661,1.474,7.169,2.615,10.67  c1.194,3.652,2.422,7.406,2.334,11.298c-0.083,3.593-1.237,7.502-4.202,9.769c-2.918,1.663-5.627,3.622-8.082,5.948  c-3.359,3.201-6.253,6.844-9.244,10.376c-0.261,0.302-0.517,0.599-0.772,0.896c0.615-2.474,0.493-5.119-0.067-7.596  c-0.599-2.664-1.776-5.162-2.942-7.617c-1.216-2.543-2.396-5.092-3.345-7.749c-1.844-5.154-3.001-10.536-3.44-15.987  c-0.019-0.24-0.395-0.226-0.37,0.008c0.244,2.991,0.692,5.969,1.357,8.887c0.597,2.623,1.361,5.208,2.288,7.725  c0.957,2.583,2.123,5.06,3.306,7.541c1.177,2.487,2.346,5.026,2.889,7.739c0.505,2.516,0.549,5.191-0.223,7.659  c0,0.011,0.011,0.01,0.006,0.016c-2.278,2.612-4.674,5.114-7.371,7.276c0.235-1.294-0.256-2.578-0.929-3.687  c-0.974-1.632-2.23-3.122-3.418-4.6c-2.309-2.853-4.785-5.559-7.409-8.129c-2.53-2.474-5.158-4.887-7.284-7.731  c-1.933-2.585-3.319-5.487-3.921-8.658c-0.563-2.974-0.445-6.062,0.353-8.981C836.808,464.293,836.45,464.212,836.39,464.439z" class="colorFFF svgShape"/><path fill="#2962FF" d="M369.477,635.133H187.883v-81.986L369.477,337.29h86.882v220.507h45.031v77.337h-45.031v67.058h-86.882  V635.133z M369.477,557.797V444.885l-95.952,112.911H369.477z" class="colorA294FE svgShape"/><rect width="18.688" height="77.337" x="482.702" y="557.797" fill="#4285f4" class="color7767E0 svgShape"/><rect width="18.688" height="220.507" x="437.671" y="337.29" fill="#4285f4" class="color7767E0 svgShape"/><polygon fill="#4285f4" points="273.526 557.797 369.477 447.543 369.477 425.552 254.838 557.797" class="color7767E0 svgShape"/><rect width="18.688" height="67.058" x="437.671" y="635.133" fill="#4285f4" class="color7767E0 svgShape"/><path fill="#2962FF" d="M1105.311,635.133H923.716v-81.986l181.595-215.857h86.881v220.507h45.031v77.337h-45.031v67.058h-86.881  V635.133z M1105.311,557.797V444.885l-95.952,112.911H1105.311z" class="colorA294FE svgShape"/><rect width="18.688" height="77.337" x="1218.536" y="557.797" fill="#4285f4" class="color7767E0 svgShape"/><rect width="18.688" height="220.507" x="1173.504" y="337.29" fill="#4285f4" class="color7767E0 svgShape"/><polygon fill="#4285f4" points="1009.359 557.797 1105.311 447.543 1105.311 425.552 990.671 557.797" class="color7767E0 svgShape"/><rect width="18.688" height="67.058" x="1173.504" y="635.133" fill="#4285f4" class="color7767E0 svgShape"/><path fill="#2962FF" d="M571.134,507.754c0-70.998,12.779-120.682,38.345-149.05c25.562-28.366,64.501-42.55,116.82-42.55  c25.136,0,45.774,3.102,61.913,9.299c16.135,6.203,29.301,14.268,39.492,24.206c10.192,9.936,18.217,20.382,24.078,31.338  c5.86,10.956,10.573,23.739,14.141,38.346c6.963,27.859,10.446,56.905,10.446,87.137c0,67.774-11.465,117.373-34.396,148.797  c-22.93,31.426-62.423,47.136-118.476,47.136c-31.427,0-56.818-5.013-76.181-15.033c-19.364-10.02-35.248-24.714-47.646-44.078  c-9.005-13.758-16.012-32.568-21.02-56.435C573.638,563.003,571.134,536.632,571.134,507.754z M674.068,508.009  c0,47.561,4.204,80.047,12.612,97.456c8.408,17.413,20.594,26.116,36.562,26.116c10.53,0,19.658-3.694,27.39-11.083  c7.727-7.39,13.416-19.066,17.071-35.033c3.65-15.965,5.478-40.85,5.478-74.653c0-49.597-4.204-82.934-12.612-100.005  c-8.408-17.07-21.02-25.606-37.836-25.606c-17.159,0-29.555,8.707-37.199,26.116C677.89,428.731,674.068,460.96,674.068,508.009z" class="colorA294FE svgShape"/><path fill="#4285f4" d="M711.425 386.664c-3.523-.965-7.276-1.463-11.274-1.463-17.158 0-29.555 8.707-37.199 26.116-7.643 17.414-11.466 49.643-11.466 96.692 0 47.561 4.204 80.047 12.612 97.456 8.408 17.413 20.594 26.116 36.562 26.116 4.006 0 7.807-.538 11.407-1.607-10.601-3.245-19.064-11.411-25.388-24.508-8.408-17.409-12.612-49.894-12.612-97.456 0-47.049 3.823-79.278 11.466-96.692C691.379 398.003 700.015 389.797 711.425 386.664zM865.923 419.343c-3.567-14.607-8.28-27.39-14.141-38.346-5.86-10.956-13.886-21.402-24.078-31.338-10.191-9.937-23.356-18.002-39.492-24.206-16.139-6.198-36.777-9.299-61.913-9.299-3.804 0-7.529.084-11.192.234 20.045.815 36.895 3.832 50.524 9.065 16.135 6.203 29.301 14.268 39.492 24.206 10.192 9.936 18.218 20.382 24.078 31.338 5.86 10.956 10.574 23.739 14.141 38.346 6.962 27.859 10.446 56.905 10.446 87.136 0 67.774-11.465 117.373-34.396 148.797-21.359 29.272-57.095 44.901-107.191 46.907 3.675.151 7.439.229 11.297.229 56.053 0 95.545-15.71 118.476-47.136 22.931-31.423 34.396-81.023 34.396-148.797C876.369 476.248 872.885 447.201 865.923 419.343z" class="color7767E0 svgShape"/><path fill="#21803a" d="M719.361,306.072c0,0-14.82,2.192-14.567,2.045c0.253-0.147,27.123,13.634,27.123,13.634l26.476-11.863  l-13.127-3.816H719.361z" class="color2E2180 svgShape"/><path fill="#c1d5f7" d="M725.053,326.293c-0.075,0.001-0.15,0.001-0.222,0.003c-0.046,0-0.091,0-0.137,0.001  c-3.771,0.043-6.232-0.051-6.232-0.051s-0.181,0.041-0.511,0.108c-3.224,0.669-20.604,3.98-19.123-2.569  c1.298-5.75,11.726-5.035,15.908-4.508c0.016,0,0.029,0.003,0.041,0.005c1.043,0.133,1.687,0.251,1.687,0.251  s2.075-0.892,5.349-2.162c0.135-0.053,0.274-0.109,0.411-0.162c10.787-4.186,33.474-12.122,39.346-7.353  c-0.001,0.003-0.001,0.003-0.001,0.003c0.065,0.049,0.128,0.105,0.188,0.16c0.004-0.003,0.009,0.002,0.011,0.009  c0.063,0.059,0.121,0.12,0.18,0.181c0.052,0.05,0.102,0.106,0.148,0.167c0.019,0.017,0.037,0.04,0.055,0.064  c0.064,0.082,0.128,0.167,0.185,0.254c-0.001,0.003,0.002,0.004,0.002,0.004c0.062,0.094,0.12,0.191,0.174,0.29  c0.052,0.095,0.097,0.193,0.137,0.292c0.095,0.215,0.168,0.445,0.221,0.688c0.053,0.246,0.097,0.486,0.126,0.723  c0.054,0.425,0.076,0.836,0.057,1.24C762.583,324.508,737.345,326.13,725.053,326.293z" class="colorF7C1CE svgShape"/><path fill="#2e528f" d="M725.249 327.526l-.417-1.23-.181-.536c-.003-.004-.002-.007-.002-.007l-2.836-8.381-.407-1.202c10.797-4.191 34.187-11.295 40.16-6.323l.003.004c.067.053.13.109.189.17.004-.003.009.002.011.009.063.059.121.12.18.181.052.05.102.106.148.167.019.017.037.04.055.064.064.082.128.167.185.254-.001.003.002.004.002.004.062.094.12.191.174.29.052.095.097.193.137.292.095.215.168.445.221.688.053.246.097.486.126.723.054.425.076.836.057 1.24C762.62 324.639 737.547 327.364 725.249 327.526zM716.457 319.563c0 0-19.662-3.842-20.518 4.47-.92 8.929 22.517 2.244 22.517 2.244s-9.039 1.978-8.61-3.092C710.261 318.279 716.457 319.563 716.457 319.563z" class="color3C2E8F svgShape"/><path fill="#c1d5f7" d="M745.672,285.822c-3.858,5.419-0.407,20.25-0.407,20.25h-25.904c0.716-1.015,2.733-13.798-1.81-20.846  c-7.331-11.368,0.567-20.207,0.567-20.207l10.773-1.958l0.688-3.43l0.472-2.362l0.111-0.549h4.845l0.176,1.03l0.379,2.245  l0.561,3.312l9.903,2.15C746.026,265.457,754.508,273.408,745.672,285.822z" class="colorF7C1CE svgShape"/><path fill="#ffdf82" d="M745.67,285.825c-3.86,5.418-0.404,20.247-0.404,20.247h-25.905c0.609-0.864,2.16-10.269-0.198-17.386  c-0.411-1.247-0.942-2.415-1.615-3.463c-7.329-11.366,0.567-20.204,0.567-20.204l10.779-1.962c0.414,2.411,6.291,2.269,7.231,0.248  l9.9,2.153C746.024,265.458,754.508,273.404,745.67,285.825z" class="colorFFD182 svgShape"/><path fill="#ea4335" d="M719.361,306.072c0.609-0.864,2.16-10.269-0.198-17.386c5.108-1.484,4.246,12.694,12.755,17.386H719.361z" class="colorC4626E svgShape"/><path fill="#c1d5f7" d="M759.759,297.095c-0.269,1.678-1.451,3.499-3.201,5.297c-4.475,4.596-13.591,4.391-19.844,6.062  l-0.653-3.331c0,0,11.163-3.148,13.564-7.064c0.255-0.418,0.432-0.807,0.503-1.154c0.814-3.902-3.704-8.781-3.704-8.781  l-0.481-22.655C745.943,265.468,761.119,288.561,759.759,297.095z" class="colorF7C1CE svgShape"/><path fill="#ffdf82" d="M759.908,297.094c-0.29,1.579-1.237,3.562-2.813,5.292c-0.167,0.182-0.441,0.213-0.648,0.08l-1.919-1.246  l-5.03-3.26c0.256-0.417,0.385-0.836,0.456-1.185c0.814-3.901-6.424-9.937-6.424-9.937l1.74-21.512  c2.331-0.105,6.162,5.215,9.342,11.738c0,0,0.003,0.009,0.009,0.024C758.064,284.147,760.734,292.6,759.908,297.094z" class="colorFFD182 svgShape"/><path fill="#c1d5f7" d="M728.465,305.179l0.113,2.215c0.2-0.07,0.184-0.36-0.024-0.403c-5.573-1.151-14.732,0.442-19.191-3.346  c-2.748-2.337-4.248-5.214-4.603-7.431c-1.36-8.534,13.442-31.178,13.442-31.178l-0.547,22.625c0,0-4.518,4.88-3.704,8.781  c0.141,0.694,0.694,1.551,1.494,2.486C718.789,302.852,728.465,305.179,728.465,305.179z" class="colorF7C1CE svgShape"/><path fill="#ffdf82" d="M713.951,296.443c0.142,0.694,1.089,1.302,1.888,2.236l-4.672,3.886l-1.878,1.561  c-2.748-2.338-4.361-5.33-4.966-7.492c-0.934-3.328,0.395-9.015,2.637-14.662c0.009-0.031,0.015-0.046,0.015-0.046  c3.383-8.521,8.827-16.935,11.67-17.003l1.641,22.958C720.286,287.882,713.137,292.542,713.951,296.443z" class="colorFFD182 svgShape"/><path fill="#c1d5f7" d="M765.109,323.054c1.56,6.658-16.166,3.431-19.455,2.776c-0.337-0.066-0.521-0.106-0.521-0.106  s-2.569,0.12-6.487,0.104c-0.076,0-0.153,0-0.229,0c-5.688-0.03-14.102-0.341-21.641-1.686c-9.25-1.648-17.187-4.843-17.173-10.97  c0-0.014,0.001-0.024,0-0.033c0.002-0.25,0.017-0.502,0.047-0.761c0.002-0.007,0.001-0.01,0-0.013  c0.032-0.266,0.077-0.535,0.133-0.81c0.053-0.247,0.125-0.482,0.22-0.702c0.041-0.102,0.086-0.201,0.138-0.299  c0.054-0.102,0.113-0.201,0.175-0.297c0,0,0.003-0.001,0.003-0.004c0.057-0.089,0.121-0.176,0.186-0.26  c0.018-0.024,0.036-0.048,0.055-0.065c0.046-0.063,0.097-0.121,0.149-0.172c0.059-0.063,0.119-0.126,0.182-0.186  c0.002-0.007,0.007-0.012,0.011-0.009c0.716-0.667,1.718-1.118,2.947-1.391c8.456-1.881,27.649,4.699,37.377,8.383  c0.141,0.053,0.282,0.108,0.42,0.161c3.345,1.267,5.466,2.158,5.466,2.158s0.654-0.126,1.716-0.27  c0.013-0.003,0.026-0.002,0.042-0.006C753.124,318.023,763.735,317.209,765.109,323.054z" class="colorF7C1CE svgShape"/><path fill="#355d9e" d="M742.05 315.486l-.405 1.227-3 9.115-.415 1.256c-5.162-.024-12.536-.475-19.457-1.758 0 0 0 0-.004-.003-10.078-1.866-19.203-5.498-19.168-12.151 0-.014.001-.024 0-.033.002-.25.02-.506.047-.761.002-.007.001-.01 0-.013.032-.266.077-.535.133-.81.053-.247.125-.482.22-.702.041-.102.086-.201.138-.299.054-.102.113-.201.175-.297 0 0 .003-.001.003-.004.057-.089.121-.176.186-.26.018-.024.036-.048.055-.065.046-.063.097-.121.149-.172.059-.063.119-.126.182-.186.002-.007.007-.012.011-.009.739-.712 1.794-1.207 3.092-1.519C712.688 305.919 732.34 311.812 742.05 315.486zM747.117 318.901c0 0 19.993-4.077 20.935 4.381 1.012 9.087-22.914 2.474-22.914 2.474s8.741 1.655 8.261-3.504C752.935 317.259 747.117 318.901 747.117 318.901z" class="color45359E svgShape"/><path fill="#2962FF" d="M750.424,286.084v21.262c0,1.144-0.928,2.073-2.073,2.073h-32.578c-1.145,0-2.073-0.928-2.073-2.073v-21.262  c0-1.144,0.928-2.073,2.073-2.073h32.578C749.496,284.011,750.424,284.939,750.424,286.084z" class="colorA294FE svgShape"/><path fill="#ffffff" d="M728.819,296.715c0-1.792,1.453-3.244,3.244-3.244c1.792,0,3.244,1.452,3.244,3.244  c0,1.792-1.452,3.244-3.244,3.244C730.271,299.959,728.819,298.506,728.819,296.715z" class="colorFFF svgShape"/><path fill="#89b2f5" d="M750.424,286.084v21.262c0,1.144-0.928,2.073-2.073,2.073h-32.578c-1.145,0-2.073-0.928-2.073-2.073  c32.948,1.513,36.723-3.32,34.65-23.335C749.496,284.011,750.424,284.939,750.424,286.084z" class="color9789F5 svgShape"/><path fill="#f0ce6c" d="M759.908,297.094c-0.29,1.579-1.237,3.562-2.813,5.292c-0.167,0.182-0.441,0.213-0.648,0.08l-1.919-1.246  c1.009-1.749,2.496-3.136,3.195-5.843c1.87-7.246-2.846-17.661-3.102-18.287C758.064,284.147,760.734,292.6,759.908,297.094z" class="colorF0BF6C svgShape"/><path fill="#355d9e" d="M725.908,250.832c0,0-3.882-4.159-0.733-9.685c0,0,0.951,1.723,2.079,1.247c0,0,0.059-4.04,8.259-4.872  c0,0-0.594,1.604-0.297,2.02c2.703-1.188,5.327,1.762,7.962,0.653c0,0,0.728,4.681-2.302,7.415c0,0,0.46,1.617-0.609,3.221  C739.199,252.436,725.908,250.832,725.908,250.832z" class="color45359E svgShape"/><path fill="#c1d5f7" d="M727.131,249.576c0,0-1.771-1.732-1.938-0.051c-0.198,1.989,2.17,3.469,2.17,3.469s0.577,6.151,5.766,6.151  c5.148,0,6.009-6.174,6.009-6.174s2.707-0.738,2.133-3.076c-0.272-1.11-1.684,0.024-1.684,0.024v-2.921c0,0-1.443,0.733-4.229-0.461  c-2.017-0.866-2.736-2.068-4.459-1.999C728.936,244.614,727.054,246.77,727.131,249.576z" class="colorF7C1CE svgShape"/><path fill="#355d9e" d="M460.403,481.801c0,0,4.701-3.425,1.611-8.461c-3.089-5.036-9.938-3.626-11.226-0.985  c-2.541-0.425-4.523,1.28-5.63,2.865c-0.873,1.25-1.914,3.76-0.638,8.662c1.276,4.902-5.73,7.7-6.682,11.012  c-0.612,2.131,0.336,4.432,4.667,4.936c4.331,0.504,15.915-4.197,15.915-4.197C459.796,495.631,464.921,490.525,460.403,481.801z" class="color45359E svgShape"/><path fill="#c0cde3" d="M493.731,595.734c-2.019-10.228-3.121-18.591-2.84-25.96c0.199-5.404,0.733-10.364,1.168-15.351  l-31.338-17.94l-9.957-5.702h19.082c0,0,27.22,8.825,31.836,16.519c3.105,5.177,2.462,16.845,1.005,27.426  c-1.539,11.097-3.983,21.008-3.983,21.008H493.731z" class="colorE3C0C1 svgShape"/><path fill="#2e528f" d="M493.653 595.507l-1.606 5.253 1.006 8.166 1.617.078 1.474-7.148 2.611 4.747c.703 1.278 1.758 2.324 3.205 2.511 3.815.495 11.271.623 11.579-1.88.318-2.573-6.909-2.683-9.02-5.511-2.044-2.739-4.501-6.322-4.501-6.322L493.653 595.507zM502.686 574.726l-6.49 1.068-5.305-6.019-23.427-26.566-6.744-6.725-5.712-5.702h14.837c0 0 27.22 8.825 31.836 16.519C504.786 552.477 504.143 564.144 502.686 574.726z" class="color3C2E8F svgShape"/><path fill="#c1d5f7" d="M499.36,596.038c-5.703-4.888-9.492-11.084-12.452-18.135c-1.919-4.571-3.413-9.477-4.662-14.573  c0,0-29.039-2.453-36.679-13.568c-5.205-7.576-1.032-18.981-1.032-18.981c4.96,0.154,11.469-0.932,15.579,0.398  c15.488,5.005,32.117,11.604,35.982,22.321c2.281,6.327,3.856,13.324,5.431,21.081c1.303,6.408,2.478,13.855,4.198,21.35  L499.36,596.038z" class="colorF7C1CE svgShape"/><path fill="#355d9e" d="M501.527,574.581l-9.686,2.199l-4.933,1.122c-1.919-4.571-3.413-9.477-4.662-14.573  c0,0-17.1-1.448-28.505-7.133c-3.458-1.729-6.4-3.847-8.174-6.435c-4.761-6.934-1.674-17.08-1.113-18.746  c0.054-0.154,0.082-0.235,0.082-0.235h0.036c4.961,0.145,12.021-1.403,16.121-0.073c15.488,5.005,32.28,11.857,36.145,22.574  C499.129,559.609,499.952,566.823,501.527,574.581z" class="color45359E svgShape"/><path fill="#a1c4ff" d="M463.35,510.692c3.26,3.939,9.086,8.504,12.423,12.378c1.645-1.426,3.561-2.132,4.939-3.95  c-5.606-8.501-11.843-17.085-19.007-24.376C463.041,500.292,461.792,505.226,463.35,510.692z" class="colorFCA1FF svgShape"/><path fill="#78abff" d="M471.221,531.242c-7.676-1.023-13.976,2.163-21.798,1.557c-0.941-0.072-1.91-0.199-2.897-0.389  c-1.82-0.362-3.087-2.028-2.897-3.874l2.58-25.163l2.272-7.739l0.525-1.774l4.069-2.182l4.474,0.154  c6.672,2.897,11.272,10.735,7.226,19.397C460.847,519.647,471.221,531.242,471.221,531.242z" class="colorFB78FF svgShape"/><path fill="#c1d5f7" d="M457.745 491.901c0 2.532-2.352 2.532-4.71 0l.554-3.061.342-1.904 3.547 1.773.261 3.123L457.745 491.901zM473.256 522.623c-2.036 3.098-3.282 2.54-6.011 2.705-3.556-.204-7.369.343-10.963.062-4.337-.339-10.714 1.062-14.243-1.819-3.529-2.881.943-17.098 1.985-20.296 1.384-4.246 2.935-6.097 4.975-9.458-.915 3.255-1.83 6.364-2.745 9.562.575 4.951 1.057 9.93 1.569 14.881 3.506.473 6.14.785 9.842 1.414 3.267.555 7.726 1.317 11.128 2.246C471.794 520.288 475.293 519.526 473.256 522.623z" class="colorF7C1CE svgShape"/><path fill="#a1c4ff" d="M457.784,519.236c-0.366,1.979-1.032,4.617-1.545,6.672c-4.587,0.215-10.107,1.12-14.383-2.48  c-4.277-3.6-1.397-18.183,0.33-22.171c1.855-4.282,3.402-5.647,6.825-7.457c6.551,6.586-0.331,15.733-1.171,24.465  C451.085,518.677,454.556,518.711,457.784,519.236z" class="colorFCA1FF svgShape"/><path fill="#c1d5f7" d="M460.48,475.417c0,0-1.798,3.81-7.834,5.223c0,0-1.884-2.055-2.697-0.77  c-0.813,1.284,1.156,3.553,1.156,3.553c0.226,3.732,2.911,6.692,5.694,5.993C463.126,487.825,460.48,475.417,460.48,475.417z" class="colorF7C1CE svgShape"/><path fill="#355d9e" d="M499.36,596.038l-1.606,5.253l1.006,8.166l1.617,0.079l1.475-7.148l2.611,4.746  c0.703,1.278,1.758,2.324,3.205,2.511c3.815,0.494,11.271,0.623,11.579-1.88c0.317-2.573-6.909-2.683-9.02-5.512  c-2.044-2.739-4.501-6.322-4.501-6.322L499.36,596.038z" class="color45359E svgShape"/><path fill="#70a5fe" d="M462.63,534.275l5.296-15.899c0.542-0.976,1.571-1.582,2.688-1.582h23.664c2.225,0,3.714,2.29,2.81,4.324  l-6.154,13.846c-0.531,1.195-1.717,1.966-3.025,1.966h-23.365C463.167,536.93,462.195,535.581,462.63,534.275z" class="color8370FE svgShape"/><path fill="#ffffff" d="M479.273,529.507c-0.877-0.877-0.877-2.299,0-3.176c0.877-0.877,2.299-0.877,3.176,0  c0.877,0.877,0.877,2.299,0,3.176C481.572,530.384,480.15,530.384,479.273,529.507z" class="colorFFF svgShape"/><rect width="2.418" height="17.994" x="877.65" y="636.871" fill="#1c8037" transform="scale(-1) rotate(21.482 3404.955 -4633.087)" class="color1F1C80 svgShape"/><path fill="#a1c4ff" d="M856.223,646.946l-0.293,15.063c0,0,3.531,5.155,4.268,6.597l8.382-9.856  c-2.988-3.648-9.789-14.357-13.705-16.077L856.223,646.946z" class="colorFCA1FF svgShape"/><path fill="#355d9e" d="M860.647,633.66c0,0,3.073-3.601,0.583-8.066c-2.229-3.994-9.554-4.336-11.982-2.184  c-4.559,4.042-3.333,11.092,1.918,13.976L860.647,633.66z" class="color45359E svgShape"/><path fill="#c1d5f7" d="M840.036,651.282c4.278,8.125,2.39,12.372,3.473,19.131c0.633,5.253,3.445,13.337,7.057,19.043  c4.523-1.669,13.63-5.024,18.156-6.688l4.127,3.339c-2.085-1.277-19.147-13.291-17.347-20.48  c3.219-13.556-0.627-22.954-0.627-22.954c0.257-0.818,1.19-3.831,1.46-4.702l-4.514-1.703c-0.764,1.311-2.455,4.187-3.234,5.518  C847.963,643.126,840.695,650.874,840.036,651.282z" class="colorF7C1CE svgShape"/><path fill="#78abff" d="M849.16,686.983c0.142,0.267,0.29,0.542,0.447,0.817c0.306,0.541,0.662,1.478,1,2.043  c1.915,0.039,3.805-0.418,5.728-0.614c1.334-0.126,2.669-0.306,3.995-0.55c7.858-1.413,10.304-0.232,16.011-5.444  c-5.898-6.442-14.198-6.936-14.138-18.316c0.095-17.849-7.328-22.247-7.328-22.247c0.32,4.392-2.231,3.214-6.288-0.887  c-0.345,0.228-6.546,2.751-8.093,7.142C837.111,658.533,840.283,670.743,849.16,686.983z" class="colorFB78FF svgShape"/><path fill="#bac9e3" d="M850.479,638.559c1.578,1.585,3.54,2.457,4.78,2.881l1.076-3.47l-4.514-1.703L850.479,638.559z" class="colorE3BABB svgShape"/><path fill="#c1d5f7" d="M849.985,632.406c0,0-1.98-1.832-1.003-3.219c1.114-1.581,3.486,1.413,3.486,1.413  c2.647,0.396,4.584-0.527,7.103-2.561c0.583-0.47,1.453-0.047,1.44,0.702c-0.056,3.112-0.455,9.068-2.631,10.563  c-1.207,0.829-2.582,0.815-3.879,0.427C851.662,638.884,850.019,632.683,849.985,632.406z" class="colorF7C1CE svgShape"/><path fill="#355d9e" d="M850.479 622.679c0 0-1.811-4.391-5.133-1.947-3.376 2.485-.767 6.133 1.786 5.969C849.685 626.536 850.479 622.679 850.479 622.679zM860.647 633.66c0 0-.592-4.091-.616-5.89 0 0-.294 2.984-4.512 4.424-3.223 1.099-2.863 4.518-2.863 4.518-1.01-2.703-.635-3.968-.188-6.112l1.081-2.759c0 0 2.209-.989 2.209-1.136 0-.146 4.442-.945 4.442-.945l1.41 2.256L860.647 633.66z" class="color45359E svgShape"/><path fill="#c1d5f7" d="M868.58,699.054c28.699,0.251,55.203-0.594,79.449,1.558c4.759,0.423,9.591-0.052,14.068,0.167  c0,0,0.055-5.276,0.153-5.857c-4.475-0.947-9.144-2.196-13.72-3.063c-21.403-4.034-43.952-7.119-67.344-9.479L868.58,699.054z" class="colorF7C1CE svgShape"/><path fill="#2e528f" d="M863.74 698.627c12.931 11.327 45.064-3.465 84.564 2.981l.663-10.533c-21.403-4.034-44.389-6.334-67.781-8.694L863.74 698.627zM961.121 700.827l4.763 2.169 7.839.063.275-1.518-6.57-2.28 4.807-1.877c1.295-.505 2.413-1.372 2.77-2.716.941-3.542 1.987-10.569-.339-11.171-2.391-.619-3.392 6.193-6.326 7.836-2.841 1.591-6.531 3.467-6.531 3.467L961.121 700.827z" class="color3C2E8F svgShape"/><path fill="#c1d5f7" d="M850.206,689.1c30.31,37.703,47.242-13.316,56.337-11.53c9.095,1.786,21.657,13.753,23.706,14.992  c2.394,0.682,7.124,1.542,6.414-1.282c-1.642-1.734-2.372-3.133-3.158-5.782c-0.002-0.008,0.396,2.491-0.203-0.842  c-0.598-3.333-15.824-19.134-21.239-19.857c-14.981-2.002-26.415,12.125-37.222,16.924  C864.034,686.523,859.098,685.198,850.206,689.1z" class="colorF7C1CE svgShape"/><path fill="#355d9e" d="M850.176 688.966c5.286 12.495 17.065 14.94 24.027 14.451 16.383-1.15 27.216-24.913 34.253-23.496 1.496.301 14.334 7.379 17.704 10.854 2.516-1.333 7.961-5.177 8.04-5.521-3.28-5.538-15.224-20.996-21.404-22.079C897.579 660.509 864.795 683.78 850.176 688.966zM930.048 692.524c-.012 1.635-.356 2.12-.245 4.031.112 1.911.718 5.246.947 7.425.531.071 1.031.046 1.549.081.444-2.266.863-4.549 1.324-6.801.712 1.375 1.865 3.133 2.5 4.43.635 1.297 2.045 2.176 3.049 2.352 2.648.464 10.222 1.177 10.735-1.844.513-3.021-6.753-3.154-8.292-5.167-1.539-2.013-3.168-3.975-4.752-5.92C934.583 691.574 932.325 692.056 930.048 692.524z" class="color45359E svgShape"/><path fill="#c1d5f7" d="M849.498,648.304l0.721,2.097l-7.806,3.645c0,0,12.664,21.115,20.618,18.862  c5.668-1.605,15.417-16.265,15.417-16.265c1.95-1.409,4.559-7.761,3.445-10.776c-2.376-6.406-1.699,2.882-4.673,5.403  c-0.546,0.462-0.619-2.81-2.068-1.558c-0.835,0.722-0.413,3.574-0.931,4.637c-1.692,3.464-11.748,9.634-12.026,9.65  c-0.082,0-0.671-1.327-1.622-3.211c-1.966-3.932-5.538-10.322-9.454-12.042C850.595,648.501,850.039,648.353,849.498,648.304z" class="colorF7C1CE svgShape"/><path fill="#a1c4ff" d="M851.137,666.956l8.941-9.054c0,0-11.255-18.778-17.505-10.642  C838.259,652.877,844.465,661.265,851.137,666.956z" class="colorFCA1FF svgShape"/><path fill="#f9edcb" d="M1214.174,513.916c-0.126,11.764,1.62,22.398,5.326,32.947c0.689,1.981,1.455,3.963,2.29,5.944l-0.96,6.375  h18.42l-11.89-7.093c-0.271-1.694-0.495-3.446-0.689-5.226c-1.251-12.051-0.718-25.366-0.359-31.367  c0.126-2.173-0.214-4.336-0.99-6.375c-3.202-8.347-11.808-31.501-14.583-45.821h-20.219  C1187.056,486.214,1196.39,496.093,1214.174,513.916z" class="colorF9CBCB svgShape"/><path fill="#355d9e" d="M1199.475,498.093c3.871,4.911,8.819,9.936,14.699,15.823c-0.126,11.764,0.682,25.12,4.388,35.668  l9.209-0.479c-1.251-12.051,0.863-32.182-1.021-39.802c-2.145-8.679-13.236-31.685-16.011-46.004h-20.219  C1188.201,478.643,1191.616,488.148,1199.475,498.093z" class="color45359E svgShape"/><path fill="#284f8f" d="M1199.465,498.055l0.01,0.038c3.871,4.911,8.819,9.936,14.699,15.823  c-0.126,11.764,0.682,25.12,4.388,35.668l2.731-0.142c-3.844-9.933-4.913-22.946-4.474-36.211  c-20.084-16.358-6.752-22.252-12.997-34.106L1199.465,498.055z" class="color37288F svgShape"/><path fill="#355d9e" d="M1227.359,552.089c4.432,2.269,12.163,1.641,12.618,7.093h-19.147c-0.216-2.566-0.09-4.974,0.661-7.093  C1223.331,552.416,1225.289,552.412,1227.359,552.089z" class="color45359E svgShape"/><path fill="#f9edcb" d="M1173.182,551.251c-0.797,1.727-1.548,3.329-2.322,5.01c5.143,1.227,10.285,2.461,15.427,3.692  c-3.112-2.584-6.244-5.118-9.342-7.735c1.186-2.405,2.63-5.797,3.917-7.975c5.153-8.722,10.983-16.446,16.883-24.588  c1.403-1.937,2.309-3.808,2.742-6.334c2.75-16.035,2.403-32.575,5.293-48.641c-4.565-0.711-9.12-1.397-13.681-2.095  c-12.712,19.857-10.023,30.447-4.693,51.758c-6.328,8.564-9.816,18.239-12.354,28.585  C1174.53,545.06,1173.641,548.875,1173.182,551.251z" class="colorF9CBCB svgShape"/><path fill="#355d9e" d="M1200.473,513.341c-0.446,2.53-1.179,4.161-2.769,6.387c-6.688,9.36-11.927,20.011-17.812,29.94  c-2.542-0.578-5.044-1.182-7.57-1.771c2.922-11.584,7.827-23.847,15.084-33.545c-5.323-21.325-8.019-31.894,4.686-51.754  c0.001-0.006,0.005-0.011,0.009-0.016c5.185,0.792,10.37,1.584,15.556,2.376c-0.073,0.393-0.143,0.787-0.217,1.181  c-0.001,0.008,0.001,0.026-0.001,0.035C1204.675,481.83,1203.234,497.698,1200.473,513.341z" class="color45359E svgShape"/><path fill="#284f8f" d="M1204.507,466.789c-1.665,2.344-0.097,7.037-1.923,9.591c-4.729,6.612-11.089,1.712-15.182,4.376  c-6.963,4.532,0.772,25.194,2.303,30.788c0.046,0.169,1.121,3.893,1.828,3.815c-3.212,0.387-2.074-1.878-6.178,5.085  c-1.852,3.141-11.434,21.481-11.795,27.299c-0.82,0.796-0.768-0.002-1.243,0.162c2.932-11.603,7.828-23.849,15.088-33.553  c-5.322-21.323-8.021-31.894,4.688-51.753c5.054,1.158,11.369,0.381,16.305,1.526C1208.98,464.26,1205.591,465.263,1204.507,466.789  z" class="color37288F svgShape"/><path fill="#355d9e" d="M1177.749,550.664c4.328,3.03,10.327,3.934,10.724,9.811c-5.968-1.429-11.936-2.862-17.905-4.286  c0.511-2.423,1.554-4.46,2.921-6.529C1174.803,550.794,1176.05,551.037,1177.749,550.664z" class="color45359E svgShape"/><path fill="#f9edcb" d="M1239.393,416.014c-0.106,0.174-0.607,1.222-0.711,1.569c-1.215-0.729-2.291-1.652-3.451-2.474  c0.336-0.325,0.993-1.202,0.978-1.613c-0.048-1.355-0.925-3.265,0.091-4.226c1.016-0.961,1.493,1.328,1.564,1.983  c1.592-1.792,1.586-2.356,2.947-4.713C1244.429,400.276,1240.531,414.151,1239.393,416.014z" class="colorF9CBCB svgShape"/><path fill="#ffdf82" d="M1239.504,416.913c-2.434,5.998-5.111,14.033-11.219,16.79c-6.947,3.135-12.843-0.311-19.785-0.274  c-1.063-5.208-2.299-10.223-3.411-15.361c7.601,1.061,13.414,5.2,20.034,8.763c4.005-3.825,6.914-8.287,9.928-12.899  C1236.546,414.919,1238.033,415.84,1239.504,416.913z" class="colorFFD182 svgShape"/><path fill="#f0ce6c" d="M1238.001,415.963c-2.434,6.116-7.661,15.719-10.15,17.443c-1.995,1.382-12.869-0.363-19.337-0.053  c-0.029-0.107,0.006-0.016-0.015,0.072c6.948-0.026,16.869,3.753,20.121,1.874c4.076-2.356,8.443-12.393,10.883-18.388  C1239.043,416.48,1238.504,416.21,1238.001,415.963z" class="colorF0BF6C svgShape"/><path fill="#f9edcb" d="M1216.347,438.578l-5.607,24.742h-20.22c0,0-3.346-23.785,1.785-36.245c2.31-5.613,9.896-8.037,10.371-8.187  l0.021-0.009l5.639,0.325L1216.347,438.578z" class="colorF9CBCB svgShape"/><path fill="#ffffff" d="M1216.114,439.592l-4.726,20.858c-0.381,1.681-1.855,2.872-3.554,2.872c-2.932,1.35-7.102,0.887-11.562,0  c-3.333,0-6.104-2.591-6.378-5.963c-0.641-7.875-1.106-21.741,2.416-30.287c1.809-4.39,6.848-6.833,9.178-7.757  c0.735-0.292,1.515-0.435,2.303-0.435l4.361,0.01c0.67,0,8.099,18.656,8.099,18.656  C1216.312,438.232,1216.266,438.922,1216.114,439.592z" class="colorFFF svgShape"/><rect width="21.456" height="3.184" x="1194.038" y="461.431" fill="#34a853" class="color182F57 svgShape"/><path fill="#ffdf82" d="M1207.043 475.582c.272 1.005 1.077 1.773 2.076 2.059 1.242.364 2.552.404 3.929.207.058-.01.107-.02.165-.03 1.009-.158 2.057-.453 3.124-.837l.01-30.848c0 0 .132-5.67 0-7.554-.583-8.315.245-18.095-7.661-19.656-.382-.076-.547-.043-.547-.043C1214.172 444.412 1204.18 464.985 1207.043 475.582zM1184.532 478.629c4.243.924 8.99.501 12.64-.015 3.068-.434 5.249-3.214 5.022-6.351-1.271-17.553 3.778-34.748.502-53.384l-.019.01c-.476.148-8.097 2.556-10.372 8.185-4.277 10.583-5.948 34.023-9.21 49.256C1182.874 477.365 1183.513 478.407 1184.532 478.629z" class="colorFFD182 svgShape"/><path fill="#f0ce6c" d="M1187.828,464.16c3.06,0.594,6.248,0.62,9.581,0v-1.465c-2.892,0.447-6.098,0.429-9.581,0V464.16z" class="colorF0BF6C svgShape"/><path fill="#f9edcb" d="M1184.9,465.744c0,0-0.352-1.139-0.987-2.313l3.873-1.533c0,0,0.307,1.941,0.813,2.267  c0.83,0.536,2.656,1.168,3.389,2.38c0.735,1.21-2.393,0.206-2.393,0.206s0.505,3.073,2.171,5.085  C1193.434,473.848,1187.549,475.781,1184.9,465.744z" class="colorF9CBCB svgShape"/><path fill="#ffdf82" d="M1188.378,462.795l-4.716,2.013c-2.413-4.449-7.935-16.615-8.304-21.415  c-0.464-6.067,19.428-19.93,19.428-19.93l5.006,9.149c-5.215,6.66-14.074,11.498-14.074,11.498L1188.378,462.795z" class="colorFFD182 svgShape"/><path fill="#f0ce6c" d="M1199.476,432.571c-8.721,7.507-14.834,11.13-14.807,10.536l2.416,20.239l1.293-0.552l-2.658-18.685  C1190.48,441.311,1195.067,437.475,1199.476,432.571z" class="colorF0BF6C svgShape"/><path fill="#355d9e" d="M1204.861,414.945c0,0-4.829-0.016-5.987-5.633c-1.158-5.617,3.447-7.615,6.471-7.576  c4.198,0.054,6.36-3.023,6.36-3.023s2.684,3.657,1.14,6.867C1211.506,408.362,1204.861,414.945,1204.861,414.945z" class="color45359E svgShape"/><path fill="#f9edcb" d="M1208.586,412.291l-0.107,1.621l-0.285,4.35l-0.043,0.662c-0.087,3.452-5.189,2.022-5.454-0.043l0.84-3.434  l0.616-2.516l0.215-0.883l0.366-1.499L1208.586,412.291z" class="colorF9CBCB svgShape"/><path fill="#f0b9b4" d="M1208.479,413.912l-0.285,4.35c-1.284-0.264-3.231-0.863-4.219-2.202c-0.154-0.206-0.299-0.41-0.439-0.613  l0.616-2.516l0.215-0.883L1208.479,413.912z" class="colorF0B4B4 svgShape"/><path fill="#f9edcb" d="M1210.429,404.909c0.829-0.512,1.902,0.092,1.95,1.076c0.175,3.541,0.014,9.291-2.759,10.23  c-4.054,1.372-6.949-3.985-6.949-3.985s-1.737-2.48-0.514-3.33c1.222-0.849,2.381,1.239,2.381,1.239  C1204.739,406.205,1208.004,406.409,1210.429,404.909z" class="colorF9CBCB svgShape"/><polygon fill="#94bcff" points="1304.002 401.42 1304.002 414.546 1297.206 414.255 1295.971 414.202 1292.891 414.071 1291.658 414.018 1265.104 412.884 1219.749 410.947 1219.749 405.019 1265.104 403.082 1291.763 401.944 1293.001 401.89 1296.079 401.758 1297.318 401.706" class="colorB194FF svgShape"/><polygon fill="#7fa8eb" points="1295.971 412.509 1292.891 412.378 1291.658 412.325 1265.104 411.19 1219.749 409.253 1219.749 410.947 1265.104 412.884 1291.658 414.018 1292.891 414.071 1295.971 414.202 1297.206 414.255 1304.002 414.546 1304.002 412.852 1297.206 412.562" class="color9C7FEB svgShape"/><path fill="#355d9e" d="M1218.444,403.499c-0.721,0-1.305,0.584-1.305,1.305v6.146c0,0.721,0.584,1.305,1.305,1.305  c0.72,0,1.305-0.584,1.305-1.305v-6.146C1219.749,404.083,1219.164,403.499,1218.444,403.499z" class="color45359E svgShape"/><path fill="#ffffff" d="M1305.518,407.983c0,3.624-0.979,6.562-2.187,6.562c-1.208,0-2.188-2.938-2.188-6.562  c0-3.624,0.979-6.562,2.188-6.562C1304.539,401.421,1305.518,404.359,1305.518,407.983z" class="colorFFF svgShape"/><path fill="#355d9e" d="M1303.331,415.154c-1.836,0-2.796-3.607-2.796-7.171c0-3.564,0.96-7.171,2.796-7.171  s2.796,3.607,2.796,7.171C1306.127,411.547,1305.167,415.154,1303.331,415.154z M1303.331,402.029c-0.472,0-1.579,2.025-1.579,5.954  c0,3.928,1.107,5.954,1.579,5.954c0.472,0,1.579-2.026,1.579-5.954C1304.91,404.055,1303.803,402.029,1303.331,402.029z" class="color45359E svgShape"/><path fill="#ffffff" d="M1297.206 414.255l-1.235-.053c-.527-4.13-.491-8.323.108-12.444l1.239-.053C1296.692 405.859 1296.654 410.092 1297.206 414.255zM1292.891 414.071l-1.233-.053c-.496-4.009-.461-8.076.105-12.075l1.238-.054C1292.41 405.923 1292.373 410.029 1292.891 414.071z" class="colorFFF svgShape"/><polygon fill="#609cff" points="1265.104 402.717 1265.104 413.249 1224.089 411.366 1222.401 411.289 1219.749 411.167 1219.749 404.799 1222.401 404.677 1224.089 404.6" class="color8B60FF svgShape"/><polygon fill="#528df0" points="1220.084 409.157 1220.084 404.783 1219.749 404.798 1219.749 411.168 1265.104 413.249 1265.104 411.222" class="color7D52F0 svgShape"/><path fill="#ffffff" d="M1266.127,401.653c-0.565,0-1.023,0.404-1.023,0.903v11.264c0,0.498,0.458,0.903,1.023,0.903  c0.565,0,1.023-0.404,1.023-0.903v-11.264C1267.15,402.057,1266.692,401.653,1266.127,401.653z" class="colorFFF svgShape"/><polygon fill="#ffffff" points="1224.089 404.6 1224.089 411.366 1222.401 411.289 1222.401 404.677" class="colorFFF svgShape"/><path fill="#f9edcb" d="M168.833,562.113c0,0,3.868,21.778,9.516,23.281c2.557,0.68,5.841,0.11,8.977-0.952  c5.303-1.794,10.177-4.985,10.346-5.856l5.379-16.33c-3.096,1.334-20.737,11.391-22.178,12.354  c-2.334-3.504-7.396-12.62-7.562-13.289c0,0,1.092-4.913,0.127-6.296c-0.857-1.224-1.173,2.79-1.535,2.303  c-0.394-0.535-2.731-6.216-4.285-4.557C164.166,556.47,168.833,562.113,168.833,562.113z" class="colorF9CBCB svgShape"/><path fill="#fbbc05" d="M183.849,572.297c0.404,4.262,2.875,10.023,3.133,12.692c5.303-1.794,11.696-2.395,11.864-3.266  l4.205-19.468C199.954,563.59,190.004,568.645,183.849,572.297z" class="colorEBB457 svgShape"/><path fill="#ccdaf1" d="M204.471,655.113c1.114,4.149,1.803,7.873,2.167,11.334c0.939,8.844,0.674,22.463-0.944,31.07l-4.535-0.445  c0,0-6.407-23.265-9.434-35.162c-0.778-3.019-1.382-5.715-1.696-7.749c-1.829-11.609,4.946-44.5,5.381-46.629l0.018-0.082  l0.006-0.03l18.248-2.549C223.376,627.94,211.876,633.742,204.471,655.113z" class="colorF1CCCD svgShape"/><path fill="#284f8f" d="M213.074,636.157c-2.575,5.298-5.867,11.062-8.604,18.955c1.01,3.758,2.159,7.664,3.488,12.219  l-15.782,2.205c-0.778-3.019-1.834-13.341-2.148-15.375c-1.829-11.609,4.946-44.5,5.381-46.629l0.018-0.082l0.006-0.03l18.248-2.549  C219.801,619.424,217.48,627.101,213.074,636.157z" class="color37288F svgShape"/><path fill="#1c8037" d="M213.074,636.157c-2.575,5.298-5.867,11.062-8.604,18.955c1.01,3.758,2.159,7.664,3.488,12.219l-2.912,0.407  c-0.499-4.506-4.48-11.914-5.817-11.676c1.184-0.293,12.031-21.534,12.856-28.89L213.074,636.157z" class="color2A1C80 svgShape"/><path fill="#ccdaf1" d="M223.575,702.828l11.118-12.887c0,0-8.164-12.751-14.77-21.228c-1.568-2.029-3.048-3.803-4.312-5.116  c-9.046-9.369-13.77-56.589-13.77-56.589h14.956c11.725,10.778,8.772,25.618,9.118,40.279c0.12,5.082,1.754,9.981,4.498,14.259  c0.553,0.862,1.073,1.735,1.564,2.629c3.421,6.243,5.449,13.564,7.321,25.589l2.315,7.805L223.575,702.828z" class="colorF1CCCD svgShape"/><path fill="#355d9e" d="M232.733,663.921l-4.322,1.98l-8.782,4.018c-1.568-2.028-2.754-5.008-4.018-6.321  c-9.046-9.369-14.887-56.775-14.887-56.775l15.436,0.176l0.637,0.01c11.333,10.417,8.953,24.63,9.094,38.807  c0.057,5.785,1.928,11.433,5.456,16.018C231.864,662.506,232.336,663.196,232.733,663.921z" class="color45359E svgShape"/><path fill="#284f8f" d="M232.733,663.921l-4.322,1.98c-1.402-2.195-3.508-6.365-4.621-9.182c-2.94-7.443-1.132-17.549-1.838-31.76  c-0.52-10.471-9.37-15.559-9.37-15.559l3.577-2.401l0.637,0.01c11.333,10.417,8.953,24.63,9.094,38.807  c0.057,5.785,1.928,11.433,5.456,16.018C231.864,662.506,232.336,663.196,232.733,663.921z" class="color37288F svgShape"/><path fill="#ffdf82" d="M224.392,576.528c-0.127,9.428-2.45,25.776-3.332,31.656c-0.128,0.852-0.598,1.587-1.264,2.048  c-0.363,0.255-0.794,0.431-1.255,0.5c-4.224,0.628-8.36,0.971-12.388,0.96c-3.626,0-7.164-0.274-10.604-0.872  c-1.343-0.235-2.372-1.314-2.519-2.666c-0.48-4.449,0.916-14.211,0.69-23.708c-0.147-6.008,1.738-21.385,12.957-23.805l6.572-0.06  c7.37,1.911,10.457,7.546,10.967,11.486C224.373,573.236,224.422,574.764,224.392,576.528z" class="colorFFD182 svgShape"/><path fill="#284f8f" d="M200.626,695.774c-6.98,2.68-14.724,2.404-15.207,8.702l21.96-0.766c0.258-2.67-0.186-5.315-1.331-7.936  H200.626z" class="color37288F svgShape"/><path fill="#355d9e" d="M234.693 689.941c-5.586 4.968-13.944 8.471-12.175 14.535l20.279-6.779c-.699-2.589-1.638-6.747-3.634-8.796L234.693 689.941zM208.726 554.846c2.14.662 3.004 1.73 5.74.494 4.164-1.881 7.678-9.088 2.149-12.347-.382-1.141-.767-1.585-2.225-1.902-1.457-.316-2.95.318-4.959.283-2.008-.034-4.849-2.102-6.6.819-1.751 2.921 2.591 5.192 4.767 6.63C209.774 550.261 209.068 552.742 208.726 554.846z" class="color45359E svgShape"/><path fill="#f9edcb" d="M213.342,560.6c-2.391,2.391-4.647,2.85-6.665,0.042l0.568-4.613l0.237-1.942h5.291l0.102,1.204  L213.342,560.6z" class="colorF9CBCB svgShape"/><path fill="#f0b9b4" d="M212.952,556.15c-1.308,1.574-4.911,2.029-5.888,1.355l0.419-3.417l5.322-2.233L212.952,556.15z" class="colorF0B4B4 svgShape"/><path fill="#f9edcb" d="M204.771 544.838c-.974 2.745-1.928 8.813.401 11.07 1.475 1.428 6.825.876 7.918-3.053 1.29-.935 2.238-3.213 1.049-4.247-.848-.737-1.931 1.21-3.409.888-.561-.122 1.162-3.87-.589-4.52C208.389 544.327 206.536 545.735 204.771 544.838zM215.449 584.18c0 0-5.876 7.077-11.211 10.97-1.277.923-2.513 1.663-3.635 2.09-7.774 2.951-25.714.627-25.714.627-5.651 2.883-12.793 1.174-14.203-.955-2.495-3.808 6.765-.217 7.659-2.494 0 0-4.258-2.318-3.064-4.01 1.186-1.702 8.609 2.832 8.609 2.832 7.504-3.089 15.059-4.792 22.204-5.278.573-.804 1.145-1.608 1.737-2.401 4.282-5.687 9.246-10.863 16-14.302C217.101 575.539 217.005 579.857 215.449 584.18z" class="colorF9CBCB svgShape"/><path fill="#fbbc05" d="M205.903,595.338l-9.278-10.369c4.282-5.687,12.482-18.151,18.2-13.177  C222.439,578.413,211.238,591.445,205.903,595.338z" class="colorEBB457 svgShape"/><path fill="#ffffff" d="M152.731,550.773c1.46-0.875,2.977-1.475,4.542-1.859c0.238-0.058,0.477-0.112,0.718-0.16  c2.496-0.505,5.107-0.488,7.783-0.175c0.237,0.028,0.476,0.058,0.714,0.09c0.311,0.042,0.625,0.088,0.938,0.138  c0.127,0.02,0.254,0.04,0.381,0.063c0.134,0.02,0.269,0.044,0.405,0.069c0.118,0.019,0.238,0.04,0.357,0.062  c0.191-0.426,0.373-0.857,0.546-1.291c0.939-2.357,1.62-4.849,2.023-7.489c0.072-0.463,0.134-0.931,0.188-1.402  c-0.115-0.037-0.23-0.074-0.345-0.111c-0.128-0.042-0.256-0.084-0.384-0.124c-0.125-0.041-0.251-0.083-0.376-0.124  c-0.331-0.109-0.661-0.22-0.99-0.333c-0.227-0.079-0.453-0.159-0.677-0.242c-2.398-0.873-4.671-1.953-6.521-3.749  c-0.181-0.176-0.358-0.359-0.529-0.547c-1.072-1.178-1.976-2.639-2.647-4.495L152.731,550.773z" class="colorFFF svgShape"/><path fill="#d8dfeb" d="M153.312,548.719l5.544-19.627c0.074,0.206,0.152,0.407,0.232,0.603L153.312,548.719z" class="colorD8DAEB svgShape"/><path fill="#c4daff" d="M152.732,550.773c4.331-2.6,9.191-2.78,14.254-2.034c0.147,0.021,0.294,0.045,0.441,0.067  c0.029,0.005,0.058,0.008,0.087,0.013c0.097,0.016,0.196,0.031,0.294,0.049c0.069,0.01,0.138,0.022,0.207,0.034  c0.066,0.011,0.133,0.023,0.198,0.035c0.093,0.015,0.188,0.03,0.281,0.049c0.025,0.004,0.051,0.008,0.076,0.013  c0.192-0.426,0.373-0.857,0.547-1.291c-0.065,0.144-0.13,0.288-0.198,0.429c-0.009-0.002-0.017-0.003-0.026-0.005  c-0.109-0.024-0.219-0.048-0.328-0.068c-0.058-0.013-0.116-0.026-0.174-0.038c-0.076-0.016-0.152-0.031-0.228-0.046  c-0.09-0.019-0.18-0.037-0.27-0.054c-0.036-0.008-0.071-0.015-0.107-0.022c-0.136-0.027-0.273-0.052-0.408-0.077  c-5.029-0.933-9.875-0.931-14.242,1.519L152.732,550.773z" class="colorD4C4FF svgShape"/><path fill="#609cff" d="M145.999,537.145c-1.742,6.432,0.154,12.542,4.234,13.647c4.08,1.105,8.8-3.214,10.542-9.646  c1.742-6.432-0.154-12.542-4.235-13.647C152.461,526.394,147.741,530.713,145.999,537.145z" class="color8B60FF svgShape"/><path fill="#ffffff" d="M177.511,541.335l-2.321,8.57c1.041,0.214,3.418,1.11,4.471,0.955c2.712-0.124,4.774-3.024,3.95-5.653  C183.002,542.465,179.798,541.915,177.511,541.335z" class="colorFFF svgShape"/><path fill="#cfdaeb" d="M175.351,549.313l-0.16,0.592c1.041,0.214,3.418,1.11,4.471,0.955c2.712-0.124,4.774-3.024,3.95-5.653  c-0.128-0.449-0.331-0.878-0.592-1.265c1.231,2.607-0.779,5.985-3.633,6.162C178.339,550.288,176.375,549.548,175.351,549.313z" class="colorCFD2EB svgShape"/><path fill="#d9e7ff" d="M147.082,537.438c-1.487,5.491-0.018,10.666,3.281,11.559c1.212,0.328,2.504,0.032,3.723-0.745  c0.881-0.56,1.724-1.369,2.478-2.376c0.267-0.357,0.521-0.737,0.762-1.14c0.013-0.023,0.027-0.046,0.041-0.07  c0.689-1.165,1.263-2.516,1.663-3.993c0.316-1.168,0.499-2.322,0.557-3.423c0.01-0.176,0.016-0.35,0.019-0.522  c0-0.007,0-0.016,0-0.023c0.022-1.212-0.109-2.351-0.378-3.363c-0.576-2.18-1.788-3.768-3.483-4.227  C152.448,528.221,148.569,531.948,147.082,537.438z" class="colorE3D9FF svgShape"/><path fill="#609cff" d="M166.318,559.06c0.167,0.045,0.341-0.042,0.405-0.202c0.75-1.885,1.924-2.839,2.751-4.368  c1.024-1.892,1.012-4.672,3.147-6.145l3.816,1.033l-5.474,10.494c-0.105,0.201,0.003,0.447,0.221,0.506l0,0  c0.185,0.05,0.295,0.241,0.245,0.427l-0.328,1.21c-0.05,0.185-0.241,0.295-0.427,0.245l-4.867-1.318  c-0.186-0.05-0.295-0.241-0.245-0.427l0.327-1.21C165.941,559.119,166.132,559.009,166.318,559.06L166.318,559.06z" class="color8B60FF svgShape"/><path fill="#4986eb" d="M169.928,561.516c0.185,0.05,0.377-0.059,0.427-0.245l0.327-1.21c0.05-0.185-0.059-0.377-0.245-0.427  c-0.218-0.059-0.326-0.305-0.221-0.506l5.227-10.021l0.994,0.269l-5.474,10.494c-0.105,0.201,0.003,0.447,0.221,0.506l0,0  c0.185,0.05,0.295,0.241,0.245,0.427l-0.328,1.21c-0.05,0.185-0.241,0.295-0.427,0.245l-4.867-1.318  c-0.186-0.05-0.295-0.241-0.245-0.427l0.045-0.167L169.928,561.516z" class="color7549EB svgShape"/><path fill="#c2d5f5" d="M151.507,547.712c0.881-0.559,1.724-1.369,2.478-2.376c0.267-0.357,0.521-0.737,0.762-1.14  c0.013-0.023,0.027-0.046,0.041-0.07c0.689-1.165,1.263-2.516,1.663-3.992c0.316-1.168,0.499-2.322,0.558-3.423  c0.01-0.176,0.016-0.35,0.019-0.523c0.001-0.007,0-0.016,0.001-0.023c0.022-1.212-0.109-2.351-0.377-3.363  c-0.453-1.713-1.3-3.059-2.465-3.78c0.527-0.072,1.051-0.045,1.561,0.093c1.695,0.459,2.907,2.048,3.483,4.227  c0.268,1.012,0.399,2.151,0.378,3.363c-0.001,0.007,0,0.016,0,0.023c-0.003,0.172-0.01,0.346-0.019,0.523  c-0.058,1.101-0.241,2.255-0.557,3.422c-0.4,1.476-0.974,2.827-1.663,3.993c-0.014,0.024-0.028,0.048-0.041,0.07  c-0.241,0.403-0.496,0.783-0.762,1.14c-0.754,1.007-1.597,1.817-2.478,2.376c-1.22,0.778-2.511,1.074-3.723,0.745  c-0.363-0.098-0.702-0.251-1.019-0.448C150.069,548.45,150.8,548.163,151.507,547.712z" class="colorCFC2F5 svgShape"/><path fill="#609cff" d="M178.72,540.998c1.088,0.461,1.634,1.828,1.268,3.179l-1.246,4.604c-0.366,1.351-1.527,2.257-2.699,2.105  c-1.879-0.25-4.141-0.463-5.971-0.702c-1.273-0.167-2.119-1.349-1.696-2.39c1.126-2.772,1.856-5.627,2.241-8.579  c0.105-0.805,1.046-1.252,1.907-0.905C174.659,539.171,176.648,540.105,178.72,540.998z" class="color8B60FF svgShape"/><path fill="#ffffff" d="M151.419,541.232l5.948,3.434c0.689-1.165,1.263-2.516,1.663-3.993c0.316-1.168,0.499-2.322,0.557-3.423  c0.01-0.176,0.016-0.35,0.019-0.522c0-0.007,0-0.016,0-0.023l-7.042,0.435L151.419,541.232z" class="colorFFF svgShape"/><path fill="#e6ecf5" d="M155.635,542.776c0.779,0.45,1.781,0.135,2.151-0.685c0.352-0.783,0.655-1.623,0.895-2.509  c0.262-0.968,0.431-1.925,0.515-2.851l0.411-0.025c-0.001,0.007,0,0.016,0,0.023c-0.003,0.172-0.01,0.346-0.019,0.522  c-0.058,1.101-0.241,2.255-0.557,3.423c-0.4,1.476-0.974,2.827-1.663,3.993l-5.948-3.434l0.215-0.766L155.635,542.776z" class="colorE6E7F5 svgShape"/><path fill="#609cff" d="M150.391,538.831c-0.32,1.182,0.053,2.312,0.835,2.524s1.674-0.575,1.994-1.758  c0.32-1.182-0.054-2.312-0.835-2.524C151.605,536.862,150.712,537.649,150.391,538.831z" class="color8B60FF svgShape"/><path fill="#4986eb" d="M150.572,538.88c-0.279,1.031,0.002,2.004,0.627,2.174c0.626,0.169,1.359-0.529,1.639-1.56  c0.279-1.031-0.002-2.004-0.627-2.174C151.585,537.15,150.851,537.849,150.572,538.88z" class="color7549EB svgShape"/><path fill="#ffffff" d="M151.976,539.342c0.086-0.317,0.025-0.61-0.136-0.653c-0.161-0.044-0.361,0.178-0.447,0.495  c-0.086,0.317-0.025,0.61,0.136,0.653C151.69,539.881,151.89,539.659,151.976,539.342z" class="colorFFF svgShape"/><path fill="#4986eb" d="M169.826,548.904c1.83,0.24,4.093,0.453,5.971,0.702c1.172,0.152,2.333-0.754,2.699-2.105l1.247-4.604  c0.068-0.249,0.104-0.499,0.111-0.744c0.263,0.588,0.328,1.307,0.134,2.024l-1.246,4.604c-0.366,1.351-1.527,2.257-2.699,2.105  c-1.879-0.25-4.141-0.463-5.971-0.702c-1.194-0.156-2.013-1.206-1.76-2.196C168.625,548.458,169.167,548.818,169.826,548.904z" class="color7549EB svgShape"/><path fill="#ffffff" d="M174.912,542.633l2.616,0.708c0.385,0.104,0.782-0.124,0.886-0.509l0,0c0.104-0.385-0.124-0.782-0.509-0.887  l-2.614-0.708c-0.385-0.104-0.783,0.123-0.887,0.509l0,0C174.299,542.131,174.527,542.529,174.912,542.633z" class="colorFFF svgShape"/><path fill="#cfdaeb" d="M174.371,542.166l3.251,0.88c0.21,0.057,0.426-0.067,0.483-0.277l0.172-0.636  c0.007-0.026,0.011-0.052,0.013-0.077c0.169,0.08,0.262,0.271,0.212,0.458l-0.172,0.636c-0.057,0.21-0.273,0.334-0.483,0.277  l-3.251-0.88c-0.184-0.05-0.302-0.222-0.29-0.406C174.326,542.151,174.348,542.16,174.371,542.166z" class="colorCFD2EB svgShape"/><path fill="#ffffff" d="M176.877,544.833l0.407,0.11c0.288,0.078,0.584-0.092,0.662-0.38l0,0c0.078-0.288-0.092-0.584-0.38-0.662  l-0.406-0.11c-0.288-0.078-0.584,0.092-0.662,0.38l0,0C176.419,544.459,176.589,544.756,176.877,544.833z" class="colorFFF svgShape"/><path fill="#cfdaeb" d="M176.536,544.613l0.928,0.251c0.144,0.039,0.292-0.046,0.331-0.19l0.141-0.521  c0.011-0.039,0.011-0.078,0.005-0.115c0.069,0.066,0.102,0.166,0.075,0.265l-0.141,0.521c-0.039,0.144-0.187,0.229-0.331,0.19  l-0.928-0.251c-0.105-0.029-0.178-0.115-0.195-0.216C176.453,544.577,176.491,544.601,176.536,544.613z" class="colorCFD2EB svgShape"/><path fill="#ffffff" d="M175.446,543.887c0.092-0.342-0.109-0.693-0.451-0.786c-0.341-0.092-0.693,0.109-0.786,0.451  c-0.092,0.342,0.109,0.693,0.451,0.786C175.002,544.43,175.353,544.228,175.446,543.887z" class="colorFFF svgShape"/><path fill="#cfdaeb" d="M174.609,544.237c0.342,0.092,0.694-0.109,0.786-0.451c0.038-0.14,0.024-0.28-0.026-0.405  c0.091,0.146,0.125,0.327,0.077,0.506c-0.092,0.341-0.444,0.543-0.786,0.451c-0.202-0.055-0.353-0.201-0.425-0.381  C174.318,544.089,174.447,544.193,174.609,544.237z" class="colorCFD2EB svgShape"/><path fill="#3177eb" d="M178.727,550.828c0.314,0.043,0.627,0.053,0.933,0.032c2.056-1.98,2.924-5.72,2.506-7.857  c-0.264-0.217-0.554-0.406-0.871-0.56C182.083,544.702,181.032,548.623,178.727,550.828z" class="color6431EB svgShape"/><path fill="#bed5fa" d="M310.616 761.865c0-7.608 2.119-13.531 6.358-17.77 4.238-4.239 10.141-6.358 17.706-6.358 7.757 0 13.733 2.082 17.929 6.246 4.197 4.165 6.295 9.998 6.295 17.501 0 5.448-.917 9.913-2.75 13.399-1.833 3.487-4.482 6.2-7.947 8.139-3.465 1.938-7.783 2.909-12.954 2.909-5.256 0-9.606-.837-13.049-2.512-3.444-1.674-6.236-4.323-8.376-7.947C311.686 771.847 310.616 767.312 310.616 761.865zM325.017 761.929c0 4.705.874 8.085 2.622 10.141 1.749 2.056 4.127 3.083 7.137 3.083 3.094 0 5.489-1.005 7.185-3.019 1.695-2.013 2.543-5.627 2.543-10.841 0-4.387-.885-7.592-2.654-9.616-1.77-2.023-4.17-3.035-7.2-3.035-2.904 0-5.235 1.028-6.993 3.083C325.896 753.78 325.017 757.182 325.017 761.929zM364.214 768.351c0-5.15 1.738-9.394 5.213-12.732 3.476-3.338 8.17-5.008 14.083-5.008 6.76 0 11.868 1.961 15.323 5.882 2.776 3.157 4.164 7.047 4.164 11.666 0 5.193-1.722 9.447-5.166 12.763-3.444 3.318-8.207 4.976-14.289 4.976-5.425 0-9.813-1.377-13.161-4.133C366.269 778.353 364.214 773.882 364.214 768.351zM377.184 768.319c0 3.009.609 5.235 1.828 6.676 1.218 1.441 2.75 2.161 4.593 2.161 1.865 0 3.396-.709 4.594-2.129 1.197-1.419 1.797-3.698 1.797-6.835 0-2.924-.604-5.101-1.812-6.532-1.208-1.431-2.702-2.146-4.482-2.146-1.886 0-3.444.726-4.673 2.178C377.798 763.143 377.184 765.351 377.184 768.319zM409.292 797.978v-46.603h12.111v4.991c1.674-2.098 3.211-3.517 4.61-4.259 1.886-.996 3.974-1.495 6.263-1.495 4.514 0 8.006 1.728 10.474 5.182 2.469 3.455 3.704 7.725 3.704 12.812 0 5.616-1.346 9.902-4.037 12.858-2.692 2.957-6.093 4.435-10.205 4.435-1.992 0-3.809-.339-5.451-1.018-1.643-.677-3.111-1.685-4.403-3.02v16.116H409.292zM422.261 768.351c0 2.67.561 4.653 1.685 5.944 1.123 1.294 2.543 1.939 4.26 1.939 1.504 0 2.766-.62 3.783-1.859 1.017-1.241 1.526-3.343 1.526-6.31 0-2.734-.53-4.742-1.589-6.024-1.06-1.282-2.352-1.924-3.878-1.924-1.653 0-3.031.647-4.132 1.939C422.813 763.349 422.261 765.448 422.261 768.351zM450.363 775.758l12.843-1.209c.53 1.527 1.272 2.618 2.226 3.275.953.657 2.225.985 3.814.985 1.738 0 3.083-.37 4.037-1.111.742-.551 1.113-1.238 1.113-2.064 0-.931-.488-1.65-1.462-2.158-.7-.36-2.554-.804-5.563-1.333-4.493-.783-7.614-1.509-9.362-2.176-1.748-.666-3.221-1.794-4.418-3.381-1.198-1.588-1.796-3.398-1.796-5.431 0-2.223.646-4.139 1.939-5.748 1.292-1.609 3.073-2.81 5.341-3.604 2.267-.794 5.308-1.192 9.124-1.192 4.026 0 6.999.308 8.917.923 1.917.614 3.518 1.569 4.8 2.861 1.282 1.293 2.347 3.041 3.195 5.245l-12.271 1.208c-.318-1.081-.848-1.876-1.589-2.384-1.017-.679-2.246-1.018-3.688-1.018-1.462 0-2.527.259-3.195.778-.667.518-1.001 1.148-1.001 1.889 0 .826.424 1.449 1.272 1.873.848.423 2.692.804 5.531 1.142 4.303.487 7.502 1.165 9.601 2.033 2.098.867 3.704 2.106 4.816 3.715 1.113 1.609 1.669 3.377 1.669 5.304 0 1.947-.588 3.843-1.764 5.684-1.176 1.842-3.031 3.309-5.563 4.399-2.533 1.089-5.982 1.635-10.348 1.635-6.167 0-10.559-.88-13.177-2.638C452.784 781.501 451.105 779 450.363 775.758zM492.452 772.293h13.829v10.648c0 3.921-.816 7.015-2.448 9.284-1.632 2.268-4.418 4.27-8.361 6.007l-3.02-5.658c2.459-1.144 4.149-2.284 5.07-3.418.922-1.134 1.436-2.474 1.542-4.021h-6.612V772.293zM536.608 738.532h23.937c5.214 0 9.118 1.24 11.715 3.718 2.596 2.48 3.894 6.008 3.894 10.586 0 4.704-1.415 8.382-4.244 11.031-2.829 2.65-7.148 3.974-12.954 3.974h-7.883v17.294h-14.464V738.532zM551.072 758.4h3.528c2.776 0 4.726-.482 5.85-1.446 1.123-.964 1.685-2.198 1.685-3.703 0-1.463-.487-2.703-1.462-3.719-.975-1.018-2.808-1.527-5.5-1.527h-4.101V758.4zM593.512 762.31l-12.366-1.304c.466-2.161 1.139-3.862 2.019-5.102.879-1.241 2.146-2.315 3.799-3.226 1.187-.657 2.819-1.166 4.896-1.527 2.077-.36 4.323-.54 6.74-.54 3.878 0 6.993.218 9.346.652 2.352.434 4.312 1.34 5.881 2.718 1.102.953 1.971 2.305 2.607 4.053.636 1.748.953 3.417.953 5.006v14.91c0 1.59.101 2.835.302 3.735.201.901.641 2.05 1.319 3.449h-12.144c-.487-.869-.806-1.531-.953-1.987-.149-.456-.297-1.17-.445-2.145-1.696 1.632-3.381 2.797-5.055 3.497-2.289.932-4.949 1.399-7.98 1.399-4.027 0-7.084-.933-9.171-2.798-2.088-1.865-3.132-4.164-3.132-6.898 0-2.564.752-4.673 2.257-6.326 1.505-1.653 4.28-2.881 8.328-3.688 4.853-.974 8-1.658 9.442-2.05 1.441-.391 2.967-.906 4.578-1.541 0-1.59-.329-2.702-.986-3.338-.657-.635-1.812-.953-3.465-.953-2.12 0-3.709.339-4.768 1.018C594.688 759.852 594.02 760.848 593.512 762.31zM604.734 769.113c-1.781.637-3.635 1.198-5.563 1.685-2.628.7-4.292 1.389-4.991 2.066-.72.7-1.081 1.495-1.081 2.385 0 1.017.354 1.849 1.065 2.495.71.647 1.753.97 3.131.97 1.441 0 2.781-.349 4.022-1.049 1.24-.699 2.119-1.552 2.638-2.559.519-1.006.779-2.315.779-3.925V769.113zM649.684 751.375h12.112v31.886l.032 1.494c0 2.118-.451 4.137-1.351 6.056-.901 1.917-2.098 3.47-3.592 4.657-1.495 1.186-3.391 2.045-5.691 2.575-2.3.529-4.932.794-7.899.794-6.783 0-11.44-1.017-13.972-3.051-2.533-2.035-3.799-4.758-3.799-8.17 0-.425.021-.996.064-1.717l12.557 1.431c.318 1.165.805 1.97 1.462 2.416.954.657 2.151.985 3.592.985 1.865 0 3.259-.498 4.18-1.494.922-.996 1.383-2.733 1.383-5.213v-5.118c-1.271 1.505-2.543 2.596-3.815 3.275-1.992 1.06-4.144 1.589-6.453 1.589-4.514 0-8.159-1.971-10.935-5.912-1.971-2.798-2.957-6.496-2.957-11.095 0-5.255 1.272-9.261 3.815-12.016 2.543-2.755 5.87-4.133 9.982-4.133 2.628 0 4.794.445 6.501 1.336 1.705.89 3.3 2.364 4.784 4.418V751.375zM637.509 767.747c0 2.437.518 4.243 1.557 5.42 1.038 1.176 2.405 1.764 4.101 1.764 1.61 0 2.961-.609 4.053-1.829 1.091-1.218 1.637-3.057 1.637-5.515 0-2.457-.572-4.339-1.717-5.642-1.144-1.304-2.543-1.955-4.196-1.955-1.653 0-2.972.599-3.958 1.796C638.002 762.983 637.509 764.97 637.509 767.747zM707.096 771.466h-25.94c.233 2.076.795 3.623 1.685 4.641 1.25 1.462 2.882 2.193 4.896 2.193 1.271 0 2.48-.318 3.624-.953.7-.403 1.451-1.113 2.257-2.129l12.748 1.176c-1.95 3.39-4.302 5.823-7.057 7.295-2.755 1.473-6.708 2.21-11.857 2.21-4.472 0-7.99-.631-10.554-1.892-2.565-1.261-4.689-3.264-6.374-6.009-1.684-2.743-2.527-5.971-2.527-9.679 0-5.278 1.69-9.548 5.07-12.812 3.38-3.263 8.048-4.896 14.003-4.896 4.832 0 8.647.732 11.444 2.194 2.798 1.462 4.927 3.582 6.39 6.358 1.462 2.776 2.193 6.39 2.193 10.841V771.466zM693.935 765.267c-.254-2.5-.927-4.292-2.019-5.372-1.092-1.081-2.528-1.622-4.308-1.622-2.056 0-3.699.817-4.927 2.447-.784 1.018-1.283 2.533-1.495 4.546H693.935zM735.707 738.532h13.447l17.547 25.783v-25.783h13.574v46.603h-13.574l-17.452-25.589v25.589h-13.542V738.532zM787.396 768.351c0-5.15 1.738-9.394 5.214-12.732 3.476-3.338 8.17-5.008 14.083-5.008 6.76 0 11.868 1.961 15.323 5.882 2.776 3.157 4.164 7.047 4.164 11.666 0 5.193-1.722 9.447-5.166 12.763-3.444 3.318-8.207 4.976-14.289 4.976-5.425 0-9.813-1.377-13.161-4.133C789.452 778.353 787.396 773.882 787.396 768.351zM800.367 768.319c0 3.009.609 5.235 1.828 6.676 1.218 1.441 2.75 2.161 4.593 2.161 1.865 0 3.396-.709 4.594-2.129 1.197-1.419 1.796-3.698 1.796-6.835 0-2.924-.604-5.101-1.812-6.532-1.208-1.431-2.702-2.146-4.482-2.146-1.886 0-3.444.726-4.673 2.178C800.981 763.143 800.367 765.351 800.367 768.319zM848.019 738.532v12.842h7.121v9.473h-7.121v11.96c0 1.438.138 2.391.413 2.856.424.719 1.165 1.079 2.226 1.079.953 0 2.288-.275 4.005-.826l.954 8.932c-3.2.699-6.189 1.049-8.965 1.049-3.222 0-5.595-.413-7.121-1.238-1.526-.826-2.654-2.08-3.385-3.763-.731-1.683-1.097-4.408-1.097-8.175v-11.874h-4.768v-9.473h4.768v-6.198L848.019 738.532zM883.941 738.532h35.604v10.013h-21.14v8.138h18.056v9.41h-18.056v19.042h-14.465V738.532zM922.629 768.351c0-5.15 1.738-9.394 5.214-12.732 3.476-3.338 8.17-5.008 14.083-5.008 6.76 0 11.868 1.961 15.322 5.882 2.776 3.157 4.165 7.047 4.165 11.666 0 5.193-1.722 9.447-5.166 12.763-3.444 3.318-8.207 4.976-14.289 4.976-5.426 0-9.813-1.377-13.161-4.133C924.685 778.353 922.629 773.882 922.629 768.351zM935.599 768.319c0 3.009.609 5.235 1.828 6.676 1.218 1.441 2.75 2.161 4.593 2.161 1.865 0 3.396-.709 4.594-2.129 1.197-1.419 1.797-3.698 1.797-6.835 0-2.924-.604-5.101-1.812-6.532-1.208-1.431-2.702-2.146-4.482-2.146-1.886 0-3.444.726-4.673 2.178C936.214 763.143 935.599 765.351 935.599 768.319zM1003.216 785.135h-12.08v-5.468c-1.801 2.247-3.619 3.846-5.452 4.801-1.833.953-4.085 1.431-6.755 1.431-3.56 0-6.353-1.065-8.377-3.195-2.024-2.131-3.036-5.41-3.036-9.84v-21.489h13.002v18.565c0 2.12.392 3.625 1.176 4.515.784.89 1.886 1.336 3.306 1.336 1.547 0 2.814-.594 3.799-1.781.985-1.186 1.478-3.316 1.478-6.39v-16.244h12.939V785.135zM1011.068 751.375h12.049v5.5c1.801-2.246 3.624-3.852 5.467-4.816 1.844-.964 4.09-1.446 6.74-1.446 3.582 0 6.385 1.065 8.408 3.195 2.024 2.131 3.036 5.42 3.036 9.872v21.458h-13.002V766.57c0-2.119-.392-3.619-1.176-4.499-.784-.879-1.886-1.319-3.306-1.319-1.569 0-2.84.593-3.815 1.78-.975 1.186-1.462 3.317-1.462 6.39v16.212h-12.939V751.375zM1090.033 738.532v46.603h-12.112v-4.991c-1.696 2.119-3.242 3.55-4.641 4.292-1.865.974-3.942 1.462-6.231 1.462-4.599 0-8.112-1.748-10.538-5.246-2.427-3.497-3.64-7.745-3.64-12.747 0-5.595 1.34-9.875 4.021-12.843 2.681-2.967 6.088-4.451 10.22-4.451 2.013 0 3.841.339 5.484 1.018 1.642.679 3.099 1.695 4.371 3.051v-16.148H1090.033zM1077.063 768.159c0-2.649-.562-4.625-1.684-5.928-1.124-1.304-2.543-1.955-4.26-1.955-1.505 0-2.766.625-3.783 1.875-1.017 1.251-1.526 3.35-1.526 6.295 0 2.756.524 4.775 1.573 6.056 1.049 1.283 2.347 1.924 3.894 1.924 1.653 0 3.031-.647 4.133-1.94C1076.512 773.193 1077.063 771.084 1077.063 768.159zM1097.949 772.165h13.829v12.97h-13.829V772.165zM1119.63 772.165h13.829v12.97h-13.829V772.165zM1141.31 772.165h13.829v12.97h-13.829V772.165z" class="colorC5BEFA svgShape"/><path fill="#e8f1ff" d="M1013.339 313.619c-2.58 0-5.017.528-7.175 1.463 1.284-2.519 1.997-5.302 1.997-8.229 0-11.324-10.668-20.504-23.827-20.504-13.159 0-23.827 9.18-23.827 20.504 0 .263.006.525.017.786-1.417-.506-2.97-.786-4.599-.786-5.269 0-9.745 2.921-11.361 6.984-.923-.143-1.873-.217-2.844-.217-8.817 0-15.964 6.151-15.964 13.738 0 7.587 7.147 13.738 15.964 13.738 5.162 0 9.751-2.109 12.669-5.38 2.911 3.349 7.557 5.516 12.791 5.516 4.249 0 8.11-1.429 10.97-3.758 2.861 2.329 6.721 3.758 10.97 3.758 4.88 0 9.249-1.885 12.177-4.855 2.927 2.891 7.236 4.718 12.041 4.718 8.817 0 15.964-6.151 15.964-13.738C1029.303 319.769 1022.156 313.619 1013.339 313.619zM482.824 188.434c-2.58 0-5.017.528-7.174 1.463 1.284-2.519 1.997-5.302 1.997-8.229 0-11.324-10.668-20.504-23.827-20.504-13.159 0-23.827 9.18-23.827 20.504 0 .263.006.525.017.786-1.417-.506-2.97-.786-4.599-.786-5.269 0-9.745 2.921-11.361 6.984-.923-.143-1.873-.217-2.844-.217-8.817 0-15.964 6.151-15.964 13.738 0 7.587 7.147 13.738 15.964 13.738 5.162 0 9.751-2.109 12.669-5.38 2.911 3.349 7.557 5.516 12.791 5.516 4.249 0 8.11-1.429 10.97-3.758 2.86 2.329 6.721 3.758 10.97 3.758 4.88 0 9.249-1.885 12.177-4.855 2.927 2.891 7.236 4.718 12.041 4.718 8.817 0 15.964-6.151 15.964-13.738C498.788 194.585 491.641 188.434 482.824 188.434zM1189.817 208.021c-2.58 0-5.017.528-7.175 1.463 1.284-2.519 1.997-5.302 1.997-8.229 0-11.324-10.668-20.504-23.827-20.504-13.159 0-23.827 9.18-23.827 20.504 0 .263.006.525.017.786-1.417-.506-2.97-.786-4.599-.786-5.269 0-9.745 2.921-11.361 6.984-.923-.143-1.873-.217-2.844-.217-8.817 0-15.964 6.151-15.964 13.738 0 7.587 7.147 13.738 15.964 13.738 5.162 0 9.751-2.109 12.669-5.38 2.911 3.349 7.557 5.516 12.791 5.516 4.249 0 8.11-1.429 10.97-3.758 2.86 2.329 6.721 3.758 10.97 3.758 4.88 0 9.249-1.885 12.177-4.855 2.927 2.891 7.236 4.718 12.041 4.718 8.817 0 15.964-6.151 15.964-13.738C1205.781 214.172 1198.633 208.021 1189.817 208.021zM192.01 417.273c-2.58 0-5.017.528-7.175 1.463 1.284-2.519 1.997-5.302 1.997-8.229 0-11.324-10.668-20.504-23.827-20.504-13.159 0-23.827 9.18-23.827 20.504 0 .263.006.525.017.786-1.417-.506-2.97-.786-4.599-.786-5.269 0-9.745 2.921-11.361 6.984-.923-.143-1.873-.217-2.844-.217-8.817 0-15.964 6.151-15.964 13.738 0 7.587 7.147 13.738 15.964 13.738 5.162 0 9.751-2.109 12.669-5.38 2.911 3.349 7.557 5.516 12.791 5.516 4.249 0 8.11-1.429 10.97-3.758 2.86 2.329 6.721 3.758 10.97 3.758 4.88 0 9.248-1.885 12.177-4.855 2.927 2.891 7.236 4.718 12.041 4.718 8.817 0 15.964-6.151 15.964-13.738C207.974 423.424 200.827 417.273 192.01 417.273z" class="colorEAE8FF svgShape"/><path fill="#2962FF" d="M1206.439 704.477H93.629c-.685 0-1.24-.555-1.24-1.24v-.238c0-.685.555-1.24 1.24-1.24h1112.81c.685 0 1.24.555 1.24 1.24v.238C1207.679 703.921 1207.124 704.477 1206.439 704.477zM73.248 704.477H25.84c-.685 0-1.24-.555-1.24-1.24v-.238c0-.685.555-1.24 1.24-1.24h47.408c.685 0 1.24.555 1.24 1.24v.238C74.489 703.921 73.933 704.477 73.248 704.477zM1245.052 704.477h-18.187c-.685 0-1.24-.555-1.24-1.24v-.238c0-.685.555-1.24 1.24-1.24h18.187c.685 0 1.241.555 1.241 1.24v.238C1246.293 703.921 1245.737 704.477 1245.052 704.477zM1338.16 704.477h-76.81c-.685 0-1.24-.555-1.24-1.24v-.238c0-.685.555-1.24 1.24-1.24h76.81c.685 0 1.24.555 1.24 1.24v.238C1339.4 703.921 1338.845 704.477 1338.16 704.477z" class="color263182 svgShape"/></svg>